<?xml version="1.0" standalone="no"?>
<!DOCTYPE svg PUBLIC "-//W3C//DTD SVG 20010904//EN"
 "http://www.w3.org/TR/2001/REC-SVG-20010904/DTD/svg10.dtd">
<svg version="1.0" xmlns="http://www.w3.org/2000/svg"
 width="260.000000pt" height="260.000000pt" viewBox="0 0 260.000000 260.000000"
 preserveAspectRatio="xMidYMid meet">
<metadata>
Created by potrace 1.11, written by Peter Selinger 2001-2013
</metadata>
<g transform="translate(0.000000,260.000000) scale(0.100000,-0.100000)"
fill="#000000" stroke="none">
<path d="M1081 2584 c-182 -30 -402 -124 -552 -236 -272 -203 -461 -510 -512
-831 -19 -114 -19 -330 -1 -432 91 -513 455 -910 959 -1045 114 -30 160 -35
340 -34 230 0 388 39 588 141 259 134 498 394 597 651 12 31 26 66 31 77 15
35 48 165 56 223 15 106 8 370 -11 462 -112 527 -523 926 -1056 1025 -72 14
-354 13 -439 -1z m454 -279 c87 -9 140 -24 222 -61 l72 -32 3 -83 3 -83 95
-36 c178 -68 192 -81 292 -288 88 -184 133 -299 159 -408 51 -214 44 -271 -41
-355 -20 -20 -48 -44 -63 -54 -15 -9 -35 -33 -44 -52 -16 -34 -88 -92 -99 -80
-3 3 4 15 16 27 32 32 50 81 39 102 -8 14 -6 18 9 18 11 0 25 7 32 16 8 8 9
14 4 13 -22 -4 -44 2 -44 12 0 6 7 8 16 5 18 -7 74 20 74 35 0 6 -9 8 -20 4
-41 -13 -69 -15 -75 -5 -4 6 5 10 20 10 47 0 119 40 102 56 -3 3 -15 0 -27 -6
-28 -15 -119 -29 -125 -20 -3 4 17 10 43 14 52 7 134 44 140 63 2 6 -21 1 -55
-12 -60 -24 -133 -38 -133 -26 0 4 25 12 56 19 68 14 142 50 156 76 20 38 -12
181 -81 354 -35 89 -161 336 -184 360 -24 26 -136 82 -212 106 -156 50 -220
57 -515 62 -274 4 -287 5 -330 28 -77 39 -135 51 -183 36 -83 -24 -287 -161
-382 -255 -52 -53 -105 -155 -151 -291 -45 -132 -52 -236 -26 -358 l17 -80 53
-18 c60 -21 85 -26 125 -27 15 -1 27 -5 27 -11 0 -16 -59 -12 -127 9 -59 18
-62 18 -53 1 9 -17 66 -37 122 -43 15 -2 31 -7 35 -11 4 -5 -23 -6 -62 -3 -65
6 -68 5 -44 -8 15 -8 41 -16 58 -17 40 -3 41 -18 1 -18 -37 0 -39 -17 -4 -30
14 -6 22 -15 19 -21 -4 -6 2 -13 14 -16 12 -3 21 -11 21 -18 0 -6 9 -20 21
-31 27 -24 51 -71 40 -78 -13 -8 -137 99 -179 156 -99 132 -131 254 -127 473
3 145 5 163 31 255 44 152 119 233 383 409 164 110 175 113 314 70 38 -12 69
-19 71 -18 1 2 10 30 20 62 24 80 41 89 196 103 36 4 66 8 68 9 4 3 133 -3
197 -10z m-40 -440 c84 -8 153 -32 167 -58 23 -44 71 -96 100 -108 16 -6 35
-24 43 -38 7 -15 25 -33 39 -41 17 -8 30 -27 36 -51 8 -30 17 -40 45 -49 26
-8 35 -17 35 -33 0 -32 9 -41 69 -73 29 -16 60 -38 67 -50 20 -29 20 -157 1
-232 -15 -62 -15 -63 9 -91 20 -24 24 -42 28 -112 4 -80 3 -87 -26 -136 -38
-63 -87 -93 -154 -93 -27 0 -57 -7 -68 -15 -13 -10 -24 -11 -37 -5 -34 19 -74
11 -103 -19 -15 -16 -43 -32 -62 -36 -35 -6 -44 -24 -20 -44 7 -6 60 -22 117
-34 92 -21 105 -27 119 -52 11 -20 31 -33 66 -45 28 -9 65 -27 83 -40 l33 -23
-23 -18 c-22 -16 -25 -16 -71 8 l-48 25 -35 -22 c-43 -26 -51 -40 -60 -106 -7
-55 1 -49 -135 -101 -71 -27 -229 -67 -237 -60 -2 3 30 91 72 196 l75 191 -18
71 c-21 84 -37 100 -74 75 -20 -13 -30 -33 -43 -89 -9 -40 -31 -94 -47 -122
-20 -32 -33 -71 -37 -107 -6 -45 -13 -62 -33 -78 -22 -17 -28 -32 -33 -85 l-7
-65 -45 0 -46 0 27 33 c14 17 33 45 42 60 21 38 96 258 90 264 -4 4 -165 -77
-218 -110 -10 -7 -26 -32 -35 -56 -16 -43 -16 -46 9 -116 l26 -71 -29 4 c-31
5 -44 33 -74 166 -9 37 -25 81 -37 96 -17 23 -19 38 -15 79 4 37 2 53 -9 62
-12 10 -18 9 -29 -2 -23 -23 -54 -166 -57 -261 -1 -49 -3 -88 -5 -88 -8 0
-117 46 -169 71 l-61 30 8 42 c14 71 12 76 -18 71 -16 -3 -40 -14 -56 -25 -22
-16 -31 -17 -48 -9 -29 16 -12 33 62 60 33 13 65 31 72 41 7 10 61 36 120 59
67 26 107 47 107 56 0 8 -9 14 -19 14 -11 0 -23 5 -26 10 -3 6 -28 10 -55 10
-43 0 -50 3 -62 28 -11 22 -19 26 -45 24 -36 -4 -75 14 -116 53 -24 23 -27 33
-26 78 2 38 -5 67 -25 111 -38 81 -38 88 -4 142 16 26 32 57 34 68 7 37 7 71
0 88 -5 12 5 29 37 61 24 25 47 55 50 66 5 22 -18 55 -33 46 -5 -3 -11 -1 -15
5 -3 5 3 10 14 10 12 0 21 7 21 15 0 9 -9 15 -24 15 -32 0 -45 20 -14 21 13 1
26 1 31 0 4 0 7 3 7 8 0 11 -25 21 -51 21 -38 0 -18 15 24 18 52 3 77 11 77
23 0 5 -19 9 -42 8 -62 -3 -88 0 -88 9 0 4 18 8 39 9 43 1 116 22 107 30 -3 3
-45 5 -93 4 -84 -2 -111 6 -42 13 76 7 118 18 123 32 6 16 -19 18 -74 6 -19
-5 -46 -5 -60 -2 -23 6 -22 8 15 18 22 7 45 12 51 12 6 0 107 49 225 109 214
108 255 123 384 134 41 3 158 0 230 -8z"/>
<path d="M1370 2292 c-97 -6 -84 -27 20 -31 30 -1 59 -6 64 -11 6 -6 -27 -8
-82 -6 -69 3 -95 0 -103 -10 -9 -12 0 -14 52 -15 107 -2 122 -4 126 -15 3 -8
-29 -11 -93 -10 -61 1 -99 -3 -101 -10 -2 -6 15 -11 42 -11 25 -1 68 -2 95 -2
28 -1 50 -5 50 -11 0 -6 -35 -8 -89 -6 -84 3 -125 -4 -104 -17 5 -4 51 -7 101
-8 51 -1 92 -5 92 -10 0 -8 -105 -14 -155 -9 -13 1 -17 -2 -10 -8 6 -6 98 -13
205 -16 107 -3 211 -8 230 -12 43 -7 32 7 -18 23 l-37 12 40 -3 c22 -2 48 -7
58 -11 9 -4 17 -3 17 3 0 5 -21 15 -47 22 -27 7 -52 17 -58 23 -10 10 -3 9 74
-9 52 -11 30 11 -24 25 -25 6 -45 15 -45 20 0 11 35 6 74 -9 14 -5 28 -5 31
-1 5 9 -65 41 -91 41 -8 0 -13 4 -9 9 3 6 23 5 50 -4 63 -18 56 -1 -8 23 -58
22 -141 40 -227 48 -30 3 -59 6 -65 7 -5 1 -30 1 -55 -1z"/>
<path d="M1180 1714 c-30 -19 -85 -49 -122 -66 -73 -34 -89 -59 -60 -91 16
-19 16 -20 -2 -31 -11 -6 -36 -26 -57 -44 -43 -38 -43 -41 -8 -164 17 -60 18
-71 6 -95 -30 -58 -29 -85 4 -142 l31 -53 42 5 c72 10 93 23 101 58 4 18 18
52 31 77 13 25 24 61 24 80 l0 34 -55 -6 c-31 -3 -67 -9 -80 -12 -59 -15 -3
45 62 67 19 6 48 8 65 5 29 -6 30 -5 23 21 -8 32 -26 47 -78 64 -33 11 -42 10
-66 -4 -30 -17 -82 -18 -88 -1 -2 5 29 27 69 47 55 27 90 38 141 43 64 5 67 4
76 -19 16 -42 20 -177 7 -228 -25 -95 -3 -133 72 -125 34 3 45 0 53 -16 16
-30 7 -63 -16 -60 -32 4 -47 3 -101 -4 -50 -6 -52 -7 -78 -61 l-26 -54 52 6
c45 5 120 16 138 20 3 1 24 5 48 9 26 5 46 15 52 27 22 41 72 12 83 -47 3 -18
9 -43 13 -58 9 -37 -19 -35 -46 4 l-22 30 -29 -21 c-16 -11 -57 -32 -92 -45
-34 -14 -71 -29 -82 -35 -14 -7 -35 -7 -65 0 -68 16 -87 14 -93 -10 -10 -37
13 -73 80 -124 68 -51 91 -57 176 -41 30 5 186 111 207 141 8 11 33 41 57 66
55 59 72 121 68 254 -2 55 0 118 4 140 4 22 4 54 1 70 l-7 30 -17 -42 c-16
-38 -36 -57 -36 -35 0 32 -34 190 -43 201 -6 7 -35 27 -64 43 -29 16 -74 52
-100 80 -54 57 -170 148 -187 147 -6 0 -36 -16 -66 -35z m290 -215 c42 -13 88
-45 78 -55 -4 -3 -26 1 -50 10 -26 11 -54 15 -75 11 -25 -4 -37 -1 -53 15 -11
11 -20 25 -20 30 0 12 64 6 120 -11z m-23 -155 c37 8 50 7 78 -8 19 -10 36
-25 39 -33 5 -12 0 -13 -27 -7 -47 11 -87 6 -130 -17 -46 -23 -57 -18 -57 25
0 40 6 47 32 37 12 -4 41 -3 65 3z"/>
<path d="M1167 1133 c-10 -16 11 -39 23 -27 8 8 7 14 -4 23 -8 7 -17 8 -19 4z"/>
<path d="M1287 925 c-32 -7 -60 -13 -62 -14 -3 0 -10 -1 -16 -1 -5 0 -7 -5 -4
-11 12 -19 175 14 175 35 0 8 -27 6 -93 -9z"/>
</g>
</svg>
