<svg id="Capa_1" data-name="Capa 1" xmlns="http://www.w3.org/2000/svg" viewBox="0 0 72 52"><defs><style>.cls-1{fill:#c6161f;}.cls-2{fill:#efeeee;}.cls-3{fill:#3c3b6f;}.cls-4{fill:#fff;}</style></defs><title>flag</title><rect class="cls-1" width="72" height="52"/><rect class="cls-2" y="44" width="72" height="4"/><rect class="cls-2" y="36" width="72" height="4"/><rect class="cls-2" y="28" width="72" height="4"/><rect class="cls-2" y="20" width="72" height="4"/><rect class="cls-2" y="12" width="72" height="4"/><rect class="cls-2" y="4" width="72" height="4"/><rect class="cls-3" width="36" height="28"/><rect class="cls-4" x="4.59" y="4.59" width="2.83" height="2.83" transform="translate(-2.49 6) rotate(-45)"/><rect class="cls-4" x="12.59" y="4.59" width="2.83" height="2.83" transform="translate(-0.14 11.66) rotate(-45)"/><rect class="cls-4" x="20.59" y="4.59" width="2.83" height="2.83" transform="translate(2.2 17.31) rotate(-45)"/><rect class="cls-4" x="8.59" y="8.59" width="2.83" height="2.83" transform="translate(-4.14 10) rotate(-45)"/><rect class="cls-4" x="16.59" y="8.59" width="2.83" height="2.83" transform="translate(-1.8 15.66) rotate(-45)"/><rect class="cls-4" x="24.59" y="8.59" width="2.83" height="2.83" transform="translate(0.54 21.31) rotate(-45)"/><rect class="cls-4" x="8.59" y="16.59" width="2.83" height="2.83" transform="translate(-9.8 12.34) rotate(-45)"/><rect class="cls-4" x="16.59" y="16.59" width="2.83" height="2.83" transform="translate(-7.46 18) rotate(-45)"/><rect class="cls-4" x="24.59" y="16.59" width="2.83" height="2.83" transform="translate(-5.11 23.66) rotate(-45)"/><rect class="cls-4" x="28.59" y="4.59" width="2.83" height="2.83" transform="translate(4.54 22.97) rotate(-45)"/><rect class="cls-4" x="4.59" y="12.59" width="2.83" height="2.83" transform="translate(-8.14 8.34) rotate(-45)"/><rect class="cls-4" x="12.59" y="12.59" width="2.83" height="2.83" transform="translate(-5.8 14) rotate(-45)"/><rect class="cls-4" x="20.59" y="12.59" width="2.83" height="2.83" transform="translate(-3.46 19.66) rotate(-45)"/><rect class="cls-4" x="28.59" y="12.59" width="2.83" height="2.83" transform="translate(-1.11 25.31) rotate(-45)"/><rect class="cls-4" x="4.59" y="20.59" width="2.83" height="2.83" transform="translate(-13.8 10.69) rotate(-45)"/><rect class="cls-4" x="12.59" y="20.59" width="2.83" height="2.83" transform="translate(-11.46 16.34) rotate(-45)"/><rect class="cls-4" x="20.59" y="20.59" width="2.83" height="2.83" transform="translate(-9.11 22) rotate(-45)"/><rect class="cls-4" x="28.59" y="20.59" width="2.83" height="2.83" transform="translate(-6.77 27.66) rotate(-45)"/></svg>