<svg id="Capa_1" data-name="Capa 1" xmlns="http://www.w3.org/2000/svg" viewBox="0 0 72 52"><defs><style>.cls-1{fill:#c6161f;}.cls-2{fill:#fdc307;}.cls-3{fill:#e95a6f;}.cls-4{fill:#98a9b4;}.cls-5{fill:#66757f;}.cls-6{fill:#de2e44;}.cls-7{fill:#f3a2b2;}</style></defs><title>flag</title><rect class="cls-1" width="72" height="52"/><rect class="cls-2" y="13" width="72" height="26"/><path class="cls-3" d="M16,20.5H28a0,0,0,0,1,0,0v8a6,6,0,0,1-6,6h0a6,6,0,0,1-6-6v-8A0,0,0,0,1,16,20.5Z"/><rect class="cls-4" x="12" y="20.5" width="2" height="12"/><rect class="cls-5" x="12" y="18.5" width="2" height="2"/><rect class="cls-5" x="10" y="32.5" width="6" height="2"/><rect class="cls-4" x="30" y="20.5" width="2" height="12"/><rect class="cls-5" x="30" y="18.5" width="2" height="2"/><rect class="cls-5" x="28" y="32.5" width="6" height="2"/><rect class="cls-6" x="16" y="20.5" width="6" height="6"/><rect class="cls-7" x="22" y="20.5" width="6" height="6"/><path class="cls-3" d="M22,17.5H16s1,3,6,3,6-3,6-3Z"/></svg>