<svg id="Capa_1" data-name="Capa 1" xmlns="http://www.w3.org/2000/svg" viewBox="0 0 809.89 1133.22"><defs><style>.cls-1{fill:#fff;}</style></defs><title>DOÑA FRIDA logo</title><path class="cls-1" d="M64.08,500.87l-3.48-7.34c-3-6.26-9.48-9.36-16.73-5.92S35,498.08,37.93,504.29l6.37,13.42,36-17.08-2.88-6.08Zm-16.59,7.88L44,501.41a5.48,5.48,0,0,1,2.75-7.72,5.49,5.49,0,0,1,7.77,2.73L58,503.76Z"/><rect class="cls-1" x="25.39" y="467.3" width="39.82" height="6.72" transform="translate(-165.04 47.19) rotate(-20.92)"/><path class="cls-1" d="M54.81,434.8a14.24,14.24,0,0,0-17.68-9.74l-25,7.24L14,438.76l25-7.24A7.55,7.55,0,1,1,43.2,446l-25,7.24L20,459.72l25-7.24A14.24,14.24,0,0,0,54.81,434.8Z"/><path class="cls-1" d="M46.52,402.66,32,405.19l-1-5.86L44.1,388.74l-1.33-7.65L29,392.69A12.15,12.15,0,0,0,16.06,387a12.21,12.21,0,0,0-10.2,14.48l2.54,14.63,39.26-6.83Zm-32.63,5.67-1.3-7.49c-.64-3.67,1-6.58,4.63-7.21s6.2,1.55,6.84,5.22l1.31,7.5Z"/><path class="cls-1" d="M41.43,367.24,34,364.74l-.93-15.07,7-3.39-.47-7.59L0,359.29l41.9,15.54Zm-26.25-8.89,11.77-5.7.61,9.91Z"/><path class="cls-1" d="M13.74,320.09a6.67,6.67,0,0,0,6.49,6.9,6.37,6.37,0,0,0,6.84-6.34,6.68,6.68,0,1,0-13.34-.56Z"/><path class="cls-1" d="M42.27,293.06l-14.62-1.85,1-8.05c.87-6.88-2.94-13-10.89-14s-13.12,4-14,10.84L1.92,294.72l39.5,5ZM22,282.31l-1,8.05L9.44,288.9l1-8.05a5.48,5.48,0,0,1,6.47-5A5.49,5.49,0,0,1,22,282.31Z"/><polygon class="cls-1" points="52.26 239.03 45.7 237.52 41.65 255.17 32.07 252.97 35.66 237.34 29.11 235.83 25.52 251.46 15.94 249.26 20 231.61 13.44 230.1 7.88 254.3 46.7 263.23 52.26 239.03"/><path class="cls-1" d="M57.62,221.62l-13.95-4.78,1.93-5.63,16.6-3,2.52-7.34L47,204.43a12.15,12.15,0,0,0-8.58-11.2A12.21,12.21,0,0,0,22.57,201l-4.82,14L55.43,228ZM39.77,207.46l-2.47,7.19-11-3.78,2.47-7.19c1.21-3.52,4-5.3,7.53-4.09S41,203.94,39.77,207.46Z"/><path class="cls-1" d="M74.94,179.37a14.24,14.24,0,0,0-6.84-19L44.52,149.27l-2.86,6.08,23.58,11.11a7.55,7.55,0,0,1-6.43,13.66L35.22,169l-2.86,6.08,23.58,11.1A14.24,14.24,0,0,0,74.94,179.37Z"/><path class="cls-1" d="M754.57,193.29c11.83-5.23,3.59-19.64,10.07-22.5a4,4,0,0,1,5.45,2.34,4.56,4.56,0,0,1-1.73,5.8l5,4.4a11.07,11.07,0,0,0,2.44-12.9c-2.43-5.49-8-8.33-14-5.67-11.07,4.9-2.52,19.11-9.81,22.33a5.52,5.52,0,0,1-7.52-3.07,6.72,6.72,0,0,1,2.1-8.17l-5-4.48a13.25,13.25,0,0,0-3.14,15.53C741.23,193.31,747.85,196.26,754.57,193.29Z"/><rect class="cls-1" x="747.6" y="201.39" width="39.85" height="6.73" transform="translate(-24.14 270.21) rotate(-19.66)"/><polygon class="cls-1" points="754.19 226.8 755.89 233.31 779.56 227.13 760.84 256.77 800.47 246.42 798.78 239.92 775 246.12 793.73 216.49 754.19 226.8"/><path class="cls-1" d="M783.9,264.75a20.47,20.47,0,0,0-17.38,23.35,19.24,19.24,0,0,0,3.6,8.84l8.29-1.18a12.56,12.56,0,0,1-5.16-8.77,13.6,13.6,0,1,1,26.94-3.76c.52,3.69-.28,6.51-2.48,9.8l8.25-1.17a19.23,19.23,0,0,0,1-9.49A20.42,20.42,0,0,0,783.9,264.75Z"/><polygon class="cls-1" points="770.06 333.64 776.79 333.4 776.15 315.3 785.97 314.95 786.54 330.99 793.26 330.75 792.7 314.71 802.52 314.36 803.16 332.47 809.89 332.23 809.01 307.4 769.18 308.81 770.06 333.64"/><polygon class="cls-1" points="800.63 377.32 767.71 373.46 766.92 380.18 806.47 384.83 808.06 371.27 801.43 370.5 800.63 377.32"/><path class="cls-1" d="M790.77,405.31c-6.87-1.51-13.83,2-15.81,9.08l-11.6-11.33-1.65,7.53,15.2,14.93a18.45,18.45,0,0,0,8.82,5.16,12.93,12.93,0,0,0,5-25.37Zm3.55,14a6.62,6.62,0,1,1-5.09-7.68A6.49,6.49,0,0,1,794.32,419.31Z"/><path class="cls-1" d="M781.87,442.87c-6.68-2.19-14,.61-16.63,7.46l-10.41-12.43-2.39,7.33,13.64,16.37a18.45,18.45,0,0,0,8.26,6,12.93,12.93,0,0,0,7.54-24.74ZM784,457.16a6.62,6.62,0,1,1-4.3-8.15A6.49,6.49,0,0,1,784,457.16Z"/><path class="cls-1" d="M770.69,482.14a10.62,10.62,0,0,0-7.62-.41,12.65,12.65,0,0,0-7.18-8.47,13,13,0,1,0-10.49,23.87,12.65,12.65,0,0,0,11.1-.43,10.63,10.63,0,0,0,5.45,5.34,10.87,10.87,0,0,0,8.75-19.89Zm-14.37,5.55a6.26,6.26,0,1,1-3.14-8.28A6.29,6.29,0,0,1,756.33,487.69Zm13.64,6a4.07,4.07,0,0,1-5.4,2.15,4.14,4.14,0,1,1,5.4-2.15Z"/><path class="cls-1" d="M425.94,551.12c-13.76,7.17-27.59,14.2-41.26,21.55a166.57,166.57,0,0,0-16,10.09c-3.24,2.25-8.55,22.14-7.18,25.82q6,16.24,12.15,32.45h0q6.44.63,13,1h0c5.3-5.87,10.42-11.58,15.19-17.56a54.29,54.29,0,0,0,8-15c6.56-17.82,12.66-35.81,18.94-53.72.73-2.08,1.53-4.14,2.85-7.71h0C428.79,549.55,427.38,550.37,425.94,551.12Z"/><path class="cls-1" d="M523.74,126.75c-5.39-2.12-16-4.63-23.19-6.21-2.2-.48-5-.28-4.6-2.6.42-2.59,3-2.28,5-2.07,5.37.54,16.57,3.65,21.78,5.08,1.62.44,2-.16,2.4-1.29s-1.6-2.06-2.19-2.36c-4.7-2.41-20.64-6.37-23.8-6.88-.12,0-2.24-.39-1.77-3.14.32-1.89,2.24-1.59,2.42-1.6,4.46-.28,21.75,4.8,25.2,6.64,1.24-.59,2.33-3.73-.9-5.23-6.3-2.92-22.8-6.6-23.92-6.91a2.27,2.27,0,0,1-1.63-2.75,1.91,1.91,0,0,1,2.12-1.71c8.67.19,18.28,4.31,22.39,5.36,1.12.29,2.19.58,2.59-.38s-.58-1.63-1.85-2.3c-11.91-6.26-28.71-10.8-41.85-13.24-23.43-4.35-46.9-7.27-70.76-4.52-2.31.27-5.12-.43-6,3.86,2.14.35,4.18.87,6.23,1,10.41.64,20.82,1.16,31.24,1.74l.58,0a2.53,2.53,0,0,1-.2,5.06l-1.23,0c-13.28-.42-26.56-.85-39.84-1.34-3.55-.13-6,.95-6.52,5.57,1.07.15,1.86.32,2.66.35,13.49.59,27,1.13,40.47,1.78a12.57,12.57,0,0,1,5.34,1.11,2.78,2.78,0,0,1,.74.61,3.11,3.11,0,0,1-1.22,4.92,2.22,2.22,0,0,1-.86.15c-8.78-.45-17.54-1.31-26.33-1.81-6.52-.37-13.06-.42-19.6-.59-3.67-.09-5,1.85-4.75,5.78,2.78,0,5.43-.1,8.06,0,12.87.6,25.75,1.21,38.61,1.92.52,0,1,.07,1.54.14,3.47.47,2.89,5.66-.6,5.51l-.74,0c-7.75-.57-15.49-1.53-23.26-1.76-8.16-.24-16.33.1-24.49.44h0c-1.7.09-2,3.93-.33,4.23,8.36,1.48,40.36,1.48,48.36,2.21,2.81.26,2.6,4.49-.23,4.4-.4,0-24.78.83-36.65.59a31.76,31.76,0,0,0-4.84.5.88.88,0,0,0-.77.82v0a1.35,1.35,0,0,0,1,1.4,25.08,25.08,0,0,0,4.84.85c15.35.39,30.71.59,46.06,1,12.88.34,25.82.3,38.63,1.49,8.49.79,21.1,2.07,28,2.67,1.31.11,2-.52,2-1.17a1.1,1.1,0,0,0-.93-1.29c-5.39-1.31-12.61-3.06-15.58-3.52-4.3-.66-5.28-1.67-5-2.64s.63-2.19,3.81-1.9c7.56.71,18.79,3.58,24.5,5.23.55.16,1.95.6,2.3-.37C526.66,127.86,525.33,127.39,523.74,126.75Z"/><path class="cls-1" d="M506.12,381.75a63.93,63.93,0,0,0-.9-10.34c-1.34-9.36.26-19,1.6-28.51a58.11,58.11,0,0,0-1.39-23.48h0a24.28,24.28,0,0,0-3.12,6.61c-1.25,4.1-2.33,8.25-3.47,12.38-.78,2.82-2,5-6,4h0c-.91-4.45-1.85-8.61-2.6-12.81-2.07-11.46-4.13-22.91-6-34.4a11.88,11.88,0,0,0-5.43-8.49c-5.28-3.46-10.2-7.67-15.85-10.32-10.87-5.1-19.44-12.71-27.13-21.67a104,104,0,0,0-11.94-12.33c-8.79-7.35-18-14.2-27-21.29-4.37-3.44-6.41-3.76-11-.52-17.32,12.25-36.22,21.55-55.64,29.81-5.15,2.19-5.65,6.56-6.83,10.78-1.05,3.77,2.43,4.67,4.52,6.4,4,3.31,3.89,7.23-.78,8.94-8.8,3.22-14.82,9.79-21.24,16-2.1,2-3.15,4.24-2.7,7.07.8,5,1.38,10.09,2.65,15a247.08,247.08,0,0,0,7.31,24.65c1.41,3.78,1.8,6.87.18,10.49-2.67,6-5.29,12-7.53,18.14-.84,2.32-1.46,5.41-.63,7.54a95.41,95.41,0,0,0,15.2,25.68c2.05,2.51,4.39,3.57,7.53,2.65,8.41-2.46,16.86-4.81,25.2-7.52,1.35-.44,3.12-2.45,3.13-3.74.08-10.36,4.66-18.91,10.1-27.23,1.33-2,3.05-4.18,3.38-6.45.9-6.34,1.17-12.76,1.74-19.9h0c-11.64,1.67-23.29,1.59-34.53,4.88-5,1.48-6.58.7-8.59-4.56h0a38.73,38.73,0,0,0,5.5-3.54c6.89-6.22,15.19-9.46,24-11.65,6-1.48,11.91-1.65,17.52,2.48h0c.26-7.33.26-7.33-4.3-16.28h0c-4.89-2.29-9.85-4.21-14.4-6.83-7.85-4.5-14.49-3-21.09,2.64-1.8,1.52-4.81,2.05-7.31,2.21-3.59.22-7.23-.5-10.85-.48-2,0-4,.22-4.3-2.14-.13-1.21,1-2.7,1.87-3.84a9,9,0,0,1,2.87-2.26c8.82-4.76,17.62-9.55,26.52-14.16,6.51-3.37,13.53-4.22,20.82-4.19a63.31,63.31,0,0,0,13.51-1.41c5.73-1.23,8-.92,10.07,4.38,2.46,6.23,5.15,12.5,3.32,19.6-.53,2.07-.09,4.5.31,6.69,1.76,9.84,2.42,19.59-.29,29.33-1.13,4.06-2.75,10.77-3.57,14.91-1.25,6.32-1.75,12.74,3.78,17.44,6,5.12,12.76,8.12,20.84,4.13.47-.23.95-.44,1.44-.64a6.24,6.24,0,0,1,8.4,4.24,35.82,35.82,0,0,0,2.62,6.32,9.31,9.31,0,0,1,.48,7.67,8.06,8.06,0,0,1-1.3,2.18c-1.93,2.28-4.79,3.26-7.42,1.65-5.5-3.34-13.18-4.73-17-.6-2.77,3-6.29,3.08-10.19,1.68-6.7-2.4-12.47.36-13.83,7.28-1,5-3.66,8.44-6.49,12.17-1.46,1.93-2.32,4.32-3.63,6.84h0c15.24.87,67.83-7.39,74.76-11.81h0l0,0a2.52,2.52,0,0,1-.66-3.63,40.82,40.82,0,0,0,2.34-3.59,4,4,0,0,1,5.25-1.59q4.87,2.39,9.66,4.94c1.71.91,3.89,3.11,3.88,4.72,0,8.16.46,13.88,3.47,21,1.77,4.19,2.7,8.73.91,9.86-1.43.91-3.59,1.86-7-1.46-5.17-5.06-7.81-8.2-9.92-13.9,0,0-13.2,10.41-39.34,19.79-4.61,1.65-9.44,3-13.64,5.37a16.92,16.92,0,0,1-12.36,1.94c-5.79-1.19-11.52-2.68-17.28-4-2.71-.62-5.45-1.14-8.26-1.73h0c-2.36,5.09-3.51,9.82-3,14.78.44,4.34,1.68,8.35,5.51,11.19,6.05,4.49,11.91,9.24,17.94,13.76,5,3.78,9.77,9.1,15.47,10.61,6,1.58,12.94-.54,19.46-1.08,1.43-.12,2.84-.54,4.27-.53,6.27,0,11.34-2.8,16.26-6.32q15.25-10.88,30.71-21.47c6.56-4.51,11.41-10.56,15.39-17.24,1.79-3,10.61-10,11.79-11.32,9-10.19,11.73-20.73,13.4-33.82C506.41,399.6,505.9,391.79,506.12,381.75Zm-90-103.23c2.88-.3,5.25-.92,7.54-.72,15.29,1.28,29.91,4.79,42.85,13.54,1,.69,2.4,1.23,2.88,2.2a6,6,0,0,1,.56,4.33c-.32.81-2.52,1.54-3.59,1.25a53.59,53.59,0,0,1-7.95-3.24c-7.33-3.38-14.55-5.63-23-4C425.41,293.73,419.32,289.21,416.14,278.52Zm57.47,59.57c-1.45-.25-3.09-.14-4.3-.81-8.5-4.71-17.32-5.21-26.48-2.47a37.84,37.84,0,0,0-5.81,1.88c-3.44,1.68-7.32,3-10,5.63-3.12,3-5.62,3.54-9.51.63,0-5.23-.17-10.34,0-15.44.27-6.22,3.49-7.94,8.62-4.62,3.49,2.26,6.87,2,10.5.62,6.58-2.44,13.14-3.77,20.27-1.71a29.67,29.67,0,0,1,16.19,11.38C474,334.31,473.51,336.42,473.61,338.09Z"/><path class="cls-1" d="M379.57,383.38a.91.91,0,0,0-.09-1.53,12,12,0,0,1-6-7.24.78.78,0,0,0-1.42-.14c-3.08,5.53-2.26,8-.56,9.67C373.84,386.46,377.88,384.63,379.57,383.38Z"/><path class="cls-1" d="M394.87,437.74c9.06-.21,17.37-3.33,25.75-6.27A4.5,4.5,0,0,0,424,426.8h0L379,434.39h0c.34,3,2,4.45,4.92,4.26C387.57,438.4,391.21,437.83,394.87,437.74Z"/><path class="cls-1" d="M712.08,203.91a334.9,334.9,0,1,0,26.25,130A332.73,332.73,0,0,0,712.08,203.91ZM629.75,434.66a1.57,1.57,0,0,1,.37-3c6.07-.7,12.49-.56,15.94-7.09-4.8,1.53-10.54.43-15-2.23-1.56-.93-1.89-3.65-.08-3.45,4.09.46,12.78,1.91,16.7-1s7.83-4.09,9.29-9.45c-8.57,4-18.66,5.58-28.18,3-1.12-.3-2.57-3.67-.21-3.45,7.83.7,23.59-1.07,29.53-5.94,3.13-2.56,5.45-4.48,6.35-9-12,5.16-26,9-38.69,9-4,0-5.3-3.73-1-4,14.58-.86,28-5.4,41-11.72,3.74-1.82,3.92-2.33,4.76-8-15.72,8.9-32.14,14.51-50.24,13.6-1.65-.08-1.52-3.63.15-3.74a117.3,117.3,0,0,0,50.08-15.19,13.37,13.37,0,0,0,6.21-7.23c2.56-6.57,3.64-12.83,1.77-20.14-8.16-31.81-18.39-62.85-32.57-92.5-9.54-19.94-19.41-39.72-29.17-59.56-3.83-7.78-9.77-13.51-17.24-17.84-21.09-12.21-43.82-20.06-67.36-25.88-22.92-5.67-46.12-9.75-69.75-10.09-26-.38-52,.19-78,.07-10.63,0-21.27-.64-31.89-1.33a27.93,27.93,0,0,1-17.19-6.77,13,13,0,0,0-4.4-2.58c-7.94-2.7-16-5.11-23.87-7.92-3.95-1.41-7.43-.77-11.29.43-27.35,8.44-50.07,24.85-72.45,41.84-7.5,5.69-14.7,11.79-22.15,17.56-12.45,9.64-21,22.3-28.13,36a295.64,295.64,0,0,0-29.12,86.36c-2.22,12.68-.91,25.39.88,38,1.4,9.89,3.75,19.66,5.81,29.45.77,3.67,3.12,5.18,6.93,6.65,14.64,5.65,29.56,9.85,45.46,10a5.42,5.42,0,0,1,.95.14c3.37.64,3,4-1.88,5-12.91,2.68-43.13-6.91-46.57-10.64,1.62,5.13,3.6,8.13,8.47,10.06,11.4,4.51,22.94,7.38,35.22,7.15h.06a2,2,0,0,1,.38,4,58.83,58.83,0,0,1-33.15-3.94,9.47,9.47,0,0,0,7.12,7.07,120.85,120.85,0,0,0,13.16,2.74c2.41.41,4.94.16,7.34.61a2.68,2.68,0,0,1,.68.23,2.34,2.34,0,0,1,.38,4,1.67,1.67,0,0,1-.67.27,63.06,63.06,0,0,1-9.76.5,71.87,71.87,0,0,1-7.41-.87c2,5.52,4.23,7.09,10.24,7.61l1.91.18a2.52,2.52,0,0,1-.37,5l-.38.5c1.26,3.24,4.48,2.6,6.77,3.52a8.89,8.89,0,0,0,1.64.45,3.93,3.93,0,0,1,1.68,6.95h0c2.85,2.5,5.37,5.28,8.41,7.25,5.25,3.39,7.18,8.76,9.23,14.08.51,1.32.37,4.09-.31,4.41-1.37.65-3.81.73-4.94-.12-7.19-5.39-14.29-10.94-21.15-16.74a147.63,147.63,0,0,1-38-49.25c-9.42-19.6-14-40.57-16-62.13a296.48,296.48,0,0,1,2.25-76,175.34,175.34,0,0,1,14.62-48c7-14.61,17.45-26.83,30.16-37.44,24-20,49.53-37.67,75.71-54.56a125.09,125.09,0,0,1,29.68-14.55,10.44,10.44,0,0,1,4.68-.48c12.51,2.07,35.08,9.55,47,13.92,3.8-5.67,7.84-29.46,12-32.66A35.32,35.32,0,0,1,365,79.54C423.93,65.76,487.11,77.2,504,83c11.75,4,16.18,7.46,27.7,12.24,9.06,3.75,9.89,7.3,9.42,16.26-.5,9.41-.29,12.31-.44,21.74-.12,7.58,1.42,9.83,8.61,11.78,17.28,4.69,33.56,11.85,49.46,19.91,12.5,6.33,21.48,15.92,27.44,28.74,9.83,21.16,20.45,42,30.34,63.1a412.27,412.27,0,0,1,29.22,86.54c2.1,9.57,3.24,19.35,5.11,29,3.89,20-4.23,35.67-18.1,49-6.75,6.48-13.66,12.91-22.46,16.83-1.34.6-2.43,2.75-2.8,4.37-2.87,12.5-12.34,19.3-22,26-.33.23-6.59,3.41-8.19.26-.59-1.16,1.65-4.13,3.09-5.85a46.94,46.94,0,0,1,5.93-5.34c2.89-2.45,7.91-10.81,7.72-21.5A33.69,33.69,0,0,1,629.75,434.66ZM420.34,25.54l-1.72-.07Zm-15.89-.4h0Zm-15.89.4c.91,0,1.83-.07,2.75-.1C390.39,25.48,389.47,25.5,388.56,25.54Zm58.52,614.14c.05-.11.1-.18.13-.18,3.12-9.38,6.3-18.74,10.25-27.76,9.92-22.65,18.39-45.83,27.29-68.85a14.84,14.84,0,0,0,.2-10.2c-2.38-7.87-4.64-15.8-5.74-24-.77-5.76-3.9-9-9.28-9.51-.81-.08-1.91-.4-2.4,0-4.67,3.72-10.63,6.05-12.23,12.91-2.59,11.14-5.39,22.26-8.58,33.24-1.17,4-2.94,8.47-5.82,11.33-9.21,9.16-11.21,20.24-9.74,32.27.63,5.19-1.36,8.38-5.17,11.22a51.94,51.94,0,0,0-4.88,4.15c-3.54,3.58-6.38,7.39-6.65,13.17-.39,8.34-1.62,16.65-2.85,24.94h0s0,0,0,.1c-2.38.05-4.77.09-7.17.09a311.16,311.16,0,0,1-46.22-3.45c-1.61-5.06-3.32-10.08-5.23-15-2.65-9.33-5.16-18.71-7.74-28.07a32.52,32.52,0,0,1-.76-6.07c-.62-8-5-14-10.14-19.64a10.44,10.44,0,0,1-2.56-6.42,98.68,98.68,0,0,1,1.25-15.28c1.78-11.4,1.24-9.18-7.06-15.59h0c-1.43,2.13-3,4.11-4.19,6.31-5.4,10.07-7,21.33-9.63,32.22-2.41,9.93-3,33.46-3.32,55.93a307.1,307.1,0,0,1-60.53-27.24c2.45-13,4.5-23.49,5.18-26.34.18-.78.25-1.58.47-3.07h0a50.8,50.8,0,0,0-19.9,5.59,32.23,32.23,0,0,0-10,8h0s0,0,0,0q-5.15-3.71-10.15-7.62h0a14.75,14.75,0,0,1,8-7.12c7.61-3,15.22-6,22.93-8.65,3-1.05,5.52-2.14,7.09-5.23,2.22-4.39,6.15-7,10.69-8.75,13.77-5.19,27.45-10.64,41.36-15.44,5.07-1.75,8.2-4.16,8.46-9.76-.52-.18-1.19-.69-1.6-.53a10.17,10.17,0,0,1-11.75-2.54c-3-3.07-6.63-3.55-10.75-2.52a25.77,25.77,0,0,1-6.72.43c-7.8-.17-9.32-1.33-12-8.77-.56-1.53-.87-3.35-1.92-4.46a10.3,10.3,0,0,0-4.51-2.34,5,5,0,0,0-2.95.67c-8.91,3.92-16.36.47-23.35-4.75-3.11-2.32-5.79-5.23-8.92-7.52-7.35-5.39-7.92-12.73-5.32-20.34A18.27,18.27,0,0,0,221.49,454c-4.61-9.12-8.76-18.47-13.34-27.6-1.32-2.62-1.13-4.79-.47-7.55,2-8.61,6.43-15.91,11.82-22.66,2.26-2.83,4.07-5.54,3.62-9.35a7.7,7.7,0,0,1,.27-3.39c2.19-6.49,2.72-12.62-.46-19.2-2.56-5.31,1.38-9.19,4.84-12.61,6.2-4.14,13-9.25,15.88-16.21,2.08-5,1.95-10,1.15-15h0c-3.77.06-7.51-.12-11.22-.35a2.36,2.36,0,0,1-2.22-1.79,2.28,2.28,0,0,1,2-2.76h.09c3.41-.28,6.8-.59,10.14-1.09h0c-.36-1.7-.73-3.41-1-5.12h0a30.71,30.71,0,0,1-3.73-.28c-1.18-.12-2.35-.31-3.52-.47-2.32-.41-4.6-1-6.85-1.64a2.08,2.08,0,0,1,.26-4.05l.17,0c2.25-.32,4.45-.51,6.63-.71,1.13-.15,2.25-.35,3.36-.45a28.57,28.57,0,0,0,3.06-.46l.39-.07a10.32,10.32,0,0,1,.68-2,1.2,1.2,0,0,0-1.08-1.72q-1.28,0-2.54-.08a60.1,60.1,0,0,1-15-3,1.75,1.75,0,0,1,.52-3.41h0c4.91-.07,9.69,0,14.31-.52a42.05,42.05,0,0,0,12.92-3.15,34.25,34.25,0,0,0,3.7-1.91,1.69,1.69,0,0,0,.59-.58l0,0a1.6,1.6,0,0,0-1.73-2.38,78.4,78.4,0,0,1-14.91,1.94,71.43,71.43,0,0,1-18.23-2,1.92,1.92,0,0,1,.42-3.78h.07a135.19,135.19,0,0,0,17.14-1.24,107.82,107.82,0,0,0,16.46-3.92l1.79-.6a2.9,2.9,0,0,0,2-2.93v0a1.5,1.5,0,0,0-1.81-1.35,110.17,110.17,0,0,1-21.2,2.37c-1.73.07-3.46,0-5.18-.05l-5.16-.14c-3.43-.2-6.84-.51-10.24-.76a1.79,1.79,0,0,1,0-3.56h.1c3.36-.2,6.71-.34,10-.59l5-.53c1.66-.15,3.31-.37,4.94-.68l4.88-.87c1.61-.33,3.2-.79,4.79-1.15.8-.19,1.59-.38,2.38-.55l2.34-.66,2.34-.61,1.18-.28,1.15-.35h0a3.07,3.07,0,0,0,2.21-3.47q-.07-.43-.13-.86a3.1,3.1,0,0,0-3.95-2.56c-3.5,1-7,1.92-10.61,2.65a78.62,78.62,0,0,1-25.23,1.55,2,2,0,0,1-.05-4h.05a145.39,145.39,0,0,0,23.17-5.34c1.87-.66,3.76-1.2,5.6-2l5.51-2.21c3.62-1.64,7.21-3.28,10.75-5.08,1.28-.63,2.54-1.28,3.81-1.93a259.66,259.66,0,0,1,30.32-16.8c2.53-1.47,16-7.45,19-8.77,7.58-3.41,19.76-9.45,26.89-13.71,9.11-5.45,19.32-6.65,29.38-8.32,33.47-5.55,66.93-3.92,100.26,1.23,6.75,1,13.36,3.87,19.64,6.73a16.26,16.26,0,0,1,7,7.23,74.76,74.76,0,0,0,16.82,21.73,29,29,0,0,0,10.06,5.44,13.71,13.71,0,0,1,8.28,7.7,30.94,30.94,0,0,0,4.8,8.25,13.32,13.32,0,0,0,6.3,4.16c4.75,1.27,7.46,4.05,8.45,8.69.68,3.2,1.32,6.4,1.81,9.63.45,3,1.87,4.84,5,5.39a49.42,49.42,0,0,1,6.55,1.58c5.85,1.88,8.51,4.69,8,10.76-.56,7.28,3.26,10,9.15,12.49,6.39,2.64,12.41,6.2,18.46,9.59,5.9,3.3,9.13,8.36,10,15.23,1.7,13,3.24,26,.66,39.06-.79,4-2.71,7.73-3.64,11.69-1.2,5.14-2.08,10.37-2.8,15.6-.47,3.4,1.51,6,4.13,7.76,6.51,4.43,8.24,10.94,8.21,18.2,0,3.89-.75,7.78-.62,11.65a59.59,59.59,0,0,0,1.51,12.62A14.68,14.68,0,0,1,618.66,453c-4.66,8.18-8.77,16.92-14.79,24-3.83,4.51-10.61,6.61-16.21,9.5a20.61,20.61,0,0,1-7.57,2.29c-3.67.29-7.59.43-11-.6a11.71,11.71,0,0,0-12.36,3.49c-2.78,3.25-5.74,4-9.87,2.24-6.44-2.71-13.1-5.09-20.16-2.18-2,.82-4.7,1.77-5.46,3.42-4.78,10.26-14.51,11.53-23.77,13.79-.78.19-1.55.42-2.32.66-.18.06-.31.26-.94.82,1,6.54,3.94,10.49,11,11.83,15.28,2.89,30.37,6.81,45.63,9.84,5.23,1,8.39,3.41,8.68,8.59s3.31,7.83,7.91,8.5C579.51,551,592.69,558,606,567.8q-6.56,5.65-13.43,10.93a128,128,0,0,0-21-12.66,8.59,8.59,0,0,0-6.15.94c-3.19,1.79-5.8,4.63-9,6.38-7.16,3.93-10.15,10-11,17.85-.62,5.57-1.34,11.12-2.08,16.68-.12.45-.25,1.13-.38,2A306.57,306.57,0,0,1,447.07,639.68Z"/><path class="cls-1" d="M457.88,720.48a2,2,0,0,0,2.68-1.23c.88-2.65,2.23-3.88,4.11-3.88,4,0,6.35,5.46,13.69,5.46,6.09,0,9.91-3.71,11.94-10.22a2,2,0,0,0-1.2-2.45L485,706.49a2,2,0,0,0-2.73,1.45c-.66,2.53-2.14,3.94-4.65,3.94-5,0-6.8-5.81-13.87-5.81-5.28,0-9.5,3.28-11.67,10a2,2,0,0,0,1.18,2.47Z"/><path class="cls-1" d="M248.88,759.93a34.4,34.4,0,0,0-34.44-34.44h-20v68.89h20A34.4,34.4,0,0,0,248.88,759.93Zm-34.44,22.81H206V737.11h8.41a22.81,22.81,0,0,1,0,45.63Z"/><path class="cls-1" d="M346.4,724.59a35.34,35.34,0,1,0,35.34,35.34A35.3,35.3,0,0,0,346.4,724.59Zm0,59a23.71,23.71,0,1,1,23.71-23.71A23.69,23.69,0,0,1,346.4,783.63Z"/><path class="cls-1" d="M497.68,791.3V727.47a2,2,0,0,0-2-2H488a2,2,0,0,0-2,2V768l-38-40.61a2,2,0,0,0-3.44,1.36v63.65a2,2,0,0,0,2,2h9.64V752.05l38,40.61A2,2,0,0,0,497.68,791.3Z"/><rect class="cls-1" x="664.61" y="749.99" width="74.78" height="19.88"/><rect class="cls-1" x="68.75" y="749.99" width="74.78" height="19.88"/><path class="cls-1" d="M620.28,792.85V750a27.22,27.22,0,0,0-30.77-27c-13.7,1.76-23.61,14.09-23.61,27.91v41.88a2,2,0,0,0,2,2h6.87a2,2,0,0,0,2-2V769h32.53v23.83a2,2,0,0,0,2,2h6.87A2,2,0,0,0,620.28,792.85ZM609.36,758.1H576.83v-7.36c0-8.49,6.19-16.09,14.64-16.91A16.28,16.28,0,0,1,609.36,750Z"/><path class="cls-1" d="M83.25,850.32q12.37,1.06,13.44,2.12a49.82,49.82,0,0,1,9.19-1.06h4.24q5.84,0,7.07,1.06a52.56,52.56,0,0,1,9.37-1.06H143a122.68,122.68,0,0,0,14.5-1.06q11.32,4.25,11.32,7.25V886.4q-1.24,10.43-10.26,10.43H118.26c-1.3.24-1.95.88-1.95,1.94V964.9q0,1.24,10.26,5.13L140,968.08q16.44,0,16.44,12.38v20.69q0,14.32-14.32,14.32H116.31v102.19a9.32,9.32,0,0,0,.89,4.24q-3.18,11.32-11.32,11.32H80.07q-9.19,0-9.19-17.5-1.06-.71-1.06-9.37,0-6.54,1.06-26.87a90.8,90.8,0,0,0-1.06-12.38q1.06-15.38,1.06-32V1030a155.52,155.52,0,0,0-1.06-20.69,153,153,0,0,0,1.06-20.69v-7.07q0-10.43-1.06-25.81a32.91,32.91,0,0,0,1.06-8.31l-1.06-2.12L71.94,935q-1.06-8.84-2.12-34.12a87.79,87.79,0,0,0,1.06-12.37q0-1.95-2.12-7.25a80.66,80.66,0,0,0,1.06-11.32v-6.19Q73,850.33,83.25,850.32Zm6.19,239.58A7.78,7.78,0,0,1,90.5,1094h3a7,7,0,0,1,1.06-3l-2.12-1.06Zm1.06-61v4.25h1.94v-4.25Zm1.94-82.57v3.18h1.06v-3.18Zm0,29.88v3.18l5.13,1.06v-6.19h-.89Q94,976.22,92.44,976.21Zm1.06-98v1.94h1.06l5.13-.88v-1.06Zm1.06,80.45v3.18c1.41,0,2.12.3,2.12.88a8.07,8.07,0,0,1,3-.88Q99.7,959.41,94.57,958.71Zm1.06,141.45a7.73,7.73,0,0,1-1.06,4.07l2.12,1.06c0-1.06.65-2.41,1.95-4.07v-1.06Zm1.06-156.83-1.06,1.94q0,2.48,7.25,3.18v-3.18Q101.11,945.27,96.69,943.33Zm4.07,56.75q-4.07,9-4.07,12.38l1.95,1.06h4.24v-1.06l-1.06-7.25q1.76,0,3-5.13Zm-3.18,70.2v1.06H99.7v-1.06Zm2.12,21.57-1.06,4.24h3.18V1095a7.13,7.13,0,0,1-1.06-3.18Zm0-207.4v3q.35,2.12,2.12,2.12h1.06V886.4q0-1.95-2.12-1.95Zm1.06,161.07-1.06,1.95v3.18h2.12c0-2.12,1-3.18,3-3.18v-1.06ZM101.82,966q0,1.59,4.07,4.07h1.06v-1.95a1.88,1.88,0,0,0-2.12-2.12Zm0,19.63v1.06q2.83,8.31,4.07,8.31,4.25-1.59,4.24-3.18v-1.06q-4.07-8.31-5.3-8.31C103.88,982.4,102.88,983.46,101.82,985.58Zm3-117.76v1.06h2.12v-1.06Zm0,11.49v1.94q0,1.77,7.25,3.18l1.06-2.12q-2.3,0-6.19-3Zm3.18,8.13,1.06,5.13H111q0-4.07,4.24-4.07V886.4Zm2.12,112.62V1002H111v-1.95Zm1.94-125h1.06a1.87,1.87,0,0,0,2.12-2.12h-1.06C112.78,873.19,112.07,873.9,112.07,875.08Zm1.06,117.75v3q2.48-1.94,4.07-1.94v-1.06Zm1.06,12.38v4.07h1.06v-4.07Zm6.19-118.81q.35,2.12,2.12,2.12,1.94,0,1.94-2.12Zm9.37,107.5v1.94h1.95v-1.94Zm4.07-117.75v2.12h2.12v-2.12Z"/><path class="cls-1" d="M204.19,850.32a126.08,126.08,0,0,0,14.5,1.06l2.12-1.06,1.94,1.06a8.11,8.11,0,0,0,3.18-1.06l12.38,1.06q5.47,0,19.62-1.06,18.57,0,43.32,18.56,16.44,21.75,16.44,43.32v63.12q0,24.4-13.26,41.2v1.06A69,69,0,0,1,317.7,1059v62.94q-1.59,11.32-11.32,11.32H280.57q-8.14,0-9.19-10.26,0-1.06,1.06-8.31l-1.06-5.13a.94.94,0,0,1,1.06-1.06l-1.06-7.25V1094a10.08,10.08,0,0,1,1.06-5.13,8.17,8.17,0,0,0-1.06-3.18q1.06-17.33,1.06-26.7v-1.06q-5.13-16.62-18.74-16.62H239.37v78.5q0,13.44-11.49,13.44H200.12q-2.12,0-8.31-10.26l1.06-10.43v-29.88l1.06-6.19q-2.12-4.06-2.12-11.31v-10.43a126.25,126.25,0,0,1,1.06-14.5l-1.06-1.94a10.05,10.05,0,0,0,1.06-5.13l-1.06-6.19a7.13,7.13,0,0,1,1.06-3.18l-1.06-9.37a117.57,117.57,0,0,1,1.06-13.26L191.81,995q1.06-11.49,1.06-20.69V961.89a52.6,52.6,0,0,0-1.06-9.37q.7-1.77,2.12-14.5-1.06-7.07-2.12-9.19,1.06-21.57,1.06-35.18V862.7Q194.81,850.33,204.19,850.32Zm4.07,41.38v5.13h2.12l1.06-5.13Zm2.12,69.13-1.06,1.94h3.18Q212.5,960.83,210.38,960.83Zm-1.06,92.82v1.06h2.12v-1.06Zm1.06-103.25v2.12a1.88,1.88,0,0,0,2.12-2.12ZM211.44,1066v1.06h2.12V1066Zm1.06-145.51q.35,2.12,1.94,2.12v-2.12Zm4.07,100.25q0,2.65-3,6.19a2.66,2.66,0,0,1,3,3h3.19l-1.06-2.13v-7.07Zm-3,20.51v3.18h.88q3.36-2.12,5.31-2.12v-1.06Zm0,39.25v2.12h.88v-2.12Zm.88-62.94v1.06h2.12v-1.06Zm2.12-123.94-1.06,5.13,4.25,2.12v-2.12l-1.06-5.13Zm-1.06,99.19v4.07q7.25-4.06,7.25-5.13c-1.3,0-1.94-.71-1.94-2.12Q215.5,991.07,215.5,992.83Zm1.06,16.44v1.06q0,2.3,9.37,4.07H227a1.72,1.72,0,0,0,1.94-1.95q-2.3-6.19-4.07-6.19h-1.06v1.94h-2.12l1.06-1.94h-1.06Q216.56,1007.51,216.56,1009.27ZM217.62,874v3.18c0,.95,1.06,1.94,3.19,3v-4.07a1.87,1.87,0,0,0-2.12-2.12Zm0,104.32v2.12h1.06v-2.12ZM221.69,999q0,1.59-1.94,4.07v2.12h1.06q1.23,0,4.07-6.19Zm-1.94,38.19q0,3.54,7.25,5.13v-7.25q0-1.94-2.12-1.94h-2.12Q221.16,1033.15,219.75,1037.21Zm1.94-130.13h2.12V905C222.4,905.2,221.69,905.9,221.69,907.08Zm1.06-26.88v4.24a14.73,14.73,0,0,1,8.31-2.12V877.2H230Q225.41,880.21,222.75,880.2Zm0,141.45,9.37,8.31v-5.13q0-1.06-7.25-5.13Q222.76,1019.89,222.75,1021.65Zm0,41.38v2.12a1.88,1.88,0,0,0,2.12-2.12Zm1.06-13.44h4.07v-2.12h-1.94C224.52,1047.7,223.81,1048.41,223.81,1049.59Zm1.06-157.89v1.94h1.06V891.7ZM225.94,999v2.13l5.13.88h1.06Q232.12,1000.44,225.94,999Zm7.25-129.07v3h.89v-3Zm.89,145.52-.89,5.3h3l-1.06-5.3Zm0-130v.89h2.12v-.89Zm1.06,142.33v1.06h4.24v-1.06q0-1.94-2.12-1.94C235.84,1026.13,235.13,1026.78,235.13,1027.84Zm3.18-141.44v1.06h1.94V886.4Zm1.06,10.43v96q8,3,11.32,3h5.13q10.25,0,15.56-14.32V970a30.72,30.72,0,0,1,1.06-8.13l-1.06-5.3q1.06-30.41,1.06-45.26-6.19-14.5-19.62-14.5Zm0,125.89v1.06h1.94v-1.06Zm.88-147.63v5.13c1.41,0,2.12-.65,2.12-1.94V877.2A1.87,1.87,0,0,0,240.26,875.08Zm0,141.45v1.06q1.59,4.07,3.18,4.07l1.06-5.13Zm9.37-6.19v3.18a1.87,1.87,0,0,0,2.12-2.12v-1.06ZM259.88,886.4v2.12H262A1.87,1.87,0,0,0,259.88,886.4Zm0,129.07v3.18q5.31-1.41,5.3-3.18ZM264.13,871v4.07q4.07-1.59,4.07-3A7.74,7.74,0,0,1,264.13,871Zm7.25,156.83V1030h1.06v-2.13Zm3-12.37v1.06h5.13v-1.06a8,8,0,0,1-.89-3h-1.06Q276,1012.46,274.38,1015.47Zm1.06,14.5v2.12h1.06V1030Zm1.06-8.31v1.06q.35,2.12,2.12,2.12l.89-2.12v-1.06Zm2.12-15.38v1.94h.89v-1.94Zm.89-113.69v2.12q.35,2.12,2.12,2.12l1.06-2.12v-2.12ZM280.57,1034l2.12,1.06a7,7,0,0,1,3-1.06v-8.13A8.63,8.63,0,0,0,280.57,1034Zm2.12,7.25v3.18a1.87,1.87,0,0,0,2.12-2.12v-1.06Zm1.06-65.07c.23,1.42.88,2.12,1.94,2.12h1.06v-2.12Zm0,39.25v1.06h1.94a1.88,1.88,0,0,0,2.12-2.12v-.89H285.7C284.4,1013.64,283.75,1014.29,283.75,1015.47Zm3-17.51-1.94,3.19v3a7.75,7.75,0,0,1,4.07,1.06,8.11,8.11,0,0,1,1.06-3.18Q288.35,998,286.76,998Zm-1.06-70.19v2.12h1.06v-2.12Zm1.06,51.63v2.12h1.06v-2.12Zm2.12,124.83v2.12h1.06v-2.12Zm1.06-207.4v3c.23,1.42.88,2.12,1.94,2.12h1.06v-1.06Q291.53,896.83,289.94,896.83Zm1.94,71.25v3H294V970C294,968.73,293.3,968.08,291.88,968.08Zm0,52.69v3a1.87,1.87,0,0,0,2.12-2.12Zm1.06-94.06v2.12H294q1.59,0,3.18-3.18v-1.06h-2.12Q292.95,924.94,292.94,926.71ZM294,904.07V905h4.24v-.89Zm0,171.33v1.06c.24,1.42.94,2.12,2.12,2.12l1.06-2.12v-1.06Zm3.18,4.07-1.06,5.3h3l-.89-5.3Zm0,25.81q0,1.59,4.07,3.18v-3.18Zm1.06-165.14v2.12q1.95,0,1.95-2.12Zm.89-39.25v3.18h1.06v-3.18Z"/><path class="cls-1" d="M366.85,851.38q30.94,0,30.94,6.19v260.26a9,9,0,0,0,.88,4.07q-3.18,11.32-11.31,11.32H361.73q-6.72,0-10.26-9.19,0-6,1.06-25.81-1.06-22.63-1.06-29.88,1.06-10.43,1.94-12.2l-1.94-22.63a50.4,50.4,0,0,0,1.06-8.31q-1.06-14.32-1.06-18.56l1.06-4.07a30.72,30.72,0,0,1-1.06-8.13,10.51,10.51,0,0,1,1.06-5.3l-2.12-15.38,2.12-13.26q0-1.77-1.06-12.38,1.06-18.92,1.06-23.69,0-.88-1.06-8.31l1.06-5.13-1.06-5.13a7,7,0,0,1,1.06-3q0-.88-1.06-8.31,0-42.08,8.13-42.08Zm-1.06,86.46v1.94h1.06v-1.94Zm0,63.65,2.12,1.06h3v-4.07H369Q367.38,998.49,365.79,1001.5ZM367.91,908V909q.71,6.19,3,6.19H372v-1.06A9.71,9.71,0,0,1,370,908ZM370,888.34l3,2.12h2.12Q373,888,373,886.4H372C370.68,886.51,370,887.16,370,888.34Zm3,175.92v1.06h2.12v-1.06ZM374.1,916.1v2.12h1.06V916.1Zm0,20.69v1.94h1.06v-1.94Zm1.06,38v2.12h4.07l1.06-5.13a8.14,8.14,0,0,1-1.06-3.19h-1.06Q375.16,969.67,375.16,974.8Zm0,30.94v3q1.41-1.06,6.19-1.06v-1.06Q376.58,1006.62,375.16,1005.74Zm.89-6.19v.89h2.12v-.89Zm4.24-114.21v3h1.94v-1.06A1.72,1.72,0,0,0,380.29,885.33Zm1.06,51.45-1.06,1.94h3A1.72,1.72,0,0,0,381.35,936.78Zm-1.06,161.43v1.06q.35,2.12,1.94,2.12v-3.18Zm1.06-17.51v1.06h1.94v-1.06Zm.88-199.44v.88q0,1.6,3.18,3.19v-2.12c0-1.3-.7-1.95-2.12-1.95Z"/><path class="cls-1" d="M455.79,851.38q6.19,0,25.82,1.95a104.73,104.73,0,0,1,14.32-.89H501q17.68,2.3,28.82,8.13,29.88,19.27,29.88,54.64v152.23q0,48.63-50.39,64.71-10.26,1.06-15.56,1.06H446.59q-11,0-12.37-15.38a59.32,59.32,0,0,1,1.06-11.32q-1.06-14.49-1.06-27.76v-1.06q0-6,1.06-16.44l-1.06-2.12,1.06-5.13a44.53,44.53,0,0,0-1.06-11.31q1.06-13.79,1.06-23.69v-5.13q0-10.78-1.06-22.63a63.91,63.91,0,0,0,1.06-12.38,7.09,7.09,0,0,0-1.06-3,8.11,8.11,0,0,1,1.06-3.18q-1.06-31.65-1.06-41l1.06-33.06-1.06-1.95,1.06-6.19V877a50.17,50.17,0,0,0-1.06-9.19Q434.22,851.39,455.79,851.38Zm-1.06,75.14-.88,1.95q.17,2.12,1.94,2.12l1.06-2.12Q456.85,926.53,454.73,926.53Zm-.88,68.78a9,9,0,0,0,5.13,8.31v-3.18q-1.42,0-4.24-5.13Zm.88-35.89v1.06h1.06q4.07-.71,4.07-8.31H459Q457.55,952.17,454.73,959.42Zm0,107v5.13a1.88,1.88,0,0,0,2.12-2.12,7,7,0,0,1-1.06-3Zm1.06-183.17q4.42,7.25,9.37,7.25V889.4q-5.31-6-5.31-7.25A7.74,7.74,0,0,1,455.79,883.21Zm0,82.39v1.94c.23,1.42.94,2.12,2.12,2.12l1.06-2.12q0-1.94-2.12-1.94Zm0,79.21v1.94h1.06v-1.94ZM459,993.36q0,2.3,5.13,3v-1.06q0-1.94-2.12-1.94Zm0,84.34v1.06h1.95a1.88,1.88,0,0,0,2.12-2.12v-2.12H462Q460.56,1074.52,459,1077.7Zm.88-186.18v1.94h1.06v-1.94Zm0,122.35h1.06a1.88,1.88,0,0,0,2.12-2.12H462C460.56,1012,459.85,1012.69,459.85,1013.87ZM463,929.54v2.12h1.06v-2.12Zm0,4.07v4.24a2.12,2.12,0,1,0,0-4.24Zm2.12,179.11v3H466v-3ZM466,875.08V877q.35,2.12,2.12,2.12h1.06a7.75,7.75,0,0,1,1.06-4.07Zm0,17.5v1.94h1.06v-1.94Zm0,3v7.25h1.06l3.18-2.12c0,.7.29,1.06.88,1.06v-5.13Zm0,202.63v1.06q0,1.59,4.24,3,5.12-1.24,5.13-3v-2.12Zm4.24-216.95q0,1.59-2.12,4.07a2,2,0,0,0,2.12,1.94h3v-6Zm-2.12,203.68a2,2,0,0,0,2.12,1.95v-1.95Zm0,7.07v1.06h3V1092Zm3,19.62v1.06h2.12v-1.06Zm6.19-8.31v3.18a1.88,1.88,0,0,0,2.12-2.12v-1.06Zm1.06,6.19c.23,1.42.94,2.12,2.12,2.12v-2.12Zm3.18-224.19v3h1.94v-1.06A1.72,1.72,0,0,0,481.6,885.33Zm0,12.37v187.24q8.13,2,10.26,1.95H500q9.19,0,13.44-14.32v-9.37l1.06-6.19c0-.59-.35-.89-1.06-.89l1.06-9.37q0-6.19-1.06-47.21,0-3.53,1.06-29.88l-1.06-10.25a96.48,96.48,0,0,0,1.06-15.56,7,7,0,0,0-1.06-3q.88-2.12,2.12-11.31,0-31.83-20.69-31.83Zm6.19,207.75v1.06h4.07v-1.06Zm12.2-8.31c.24,1.41.94,2.12,2.12,2.12v-2.12Zm0,3.18v1.06h2.12v-1.06Zm5.3,12.37v.89q.18,2.12,1.95,2.12h1.06v-3Zm3-233.56v1.06h2.12v-1.06Zm10.25,222.25v4.07c.24,1.41.94,2.12,2.13,2.12s1.94-.71,1.94-2.12Q522.62,1103.87,518.55,1101.39Zm1.06-221.19a7.08,7.08,0,0,1,1.06,3h1.94a8,8,0,0,1-.88-3Zm7.25,32.89q.35,2.12,1.94,2.12H532v-1.06q-3.18,0-3.18-3.19A2,2,0,0,0,526.86,913.09Zm3-14.5v3.18q1.59,0,3.18-3.18v-.89A9.24,9.24,0,0,1,529.87,898.59Zm1.06,175.92v5.13h2.12v-5.13Zm3-72-.89,5.13q1.95,0,1.95,3.18h3.18v-5.13q0-1.59-3.18-3.18Zm0,62.77c.23,1.42.94,2.12,2.12,2.12v-2.12ZM535,951.1v1.06h2.12V951.1ZM537.12,908v1.94h2.12V908Zm1.06,7.25v.88h1.94v-.88Zm0,51.27v1.06a7.78,7.78,0,0,1,4.07,1.06h1.06v-1.06a8.11,8.11,0,0,1-3.18-1.06Zm4.07-42.08v1.06h4.07v-1.06Z"/><path class="cls-1" d="M663.19,850.32q22.63,0,22.63,21.57,53.57,243.64,53.57,251.07,0,9.2-12.38,10.26H702.26q-9.55,0-12.2-20.51-3.18-1.06-3.18-6.19H631.36q-3.54,26.7-14.5,26.7H590.16q-6,0-10.26-9.19l13.44-56.58q0-6,12.2-58.7,0-7.78,5.3-26.7l25.64-117.4q3.88-12.2,12.38-12.2Q648.86,851.38,663.19,850.32Zm-59.59,252v5.3h1.95l-.89-5.3Zm1.95-20.51v2.12a1.87,1.87,0,0,0,2.12-2.12Zm2.12-10.25v2.12h1.06v-2.12Zm1.06,15.38V1088h2.12v-1.06Zm3,3.18q2.12,6.54,2.12,8.13h3v-1.06l-.88-7.07Zm2.12-47.38v1.06a2,2,0,0,0,2.12,1.94h.88v-3Zm2.12,9.19V1054h3v-2.12Zm0,47.39v2.12h.88v-2.12Zm1.94-17.51c.24,1.42.94,2.12,2.13,2.12h2.12v-5.13Q617.92,1080.18,617.92,1081.77Zm0,4.07V1088q1.59,0,4.25,3l-1.06,2.12v1.06h3v-1.06a7,7,0,0,1-1.06-3h1.06a10.06,10.06,0,0,1-1.06-5.13Zm1.06-21.57v4.07q0,1.59,3.19,3.18H623v-5.13Q621.46,1066.38,619,1064.26Zm4.07,8.31a2,2,0,0,0,2.12,1.94c1.41,0,2.12-.65,2.12-1.94Zm3.18-4.24,6.19,4.24v1.94q2.3,0,3-7.07l-1.95-1.06Q631,1068.33,626.23,1068.33Zm1.06,11.31.88,5.3h1.06a1.87,1.87,0,0,0,2.12-2.12v-1.06a1.87,1.87,0,0,0-2.12-2.12Zm1.94-52.34v1.95h1.06v-1.95Zm0,28.82v1.95h1.06v-1.95Zm0,4.07v1.06h2.12v-1.06Zm3.18-65.77v.88a1.72,1.72,0,0,0,1.95-1.94V992.3A2,2,0,0,0,632.42,994.42Zm3,6h2.12v-1.95C636.13,998.73,635.43,999.38,635.43,1000.44Zm0,80.27h3.18v-1.94h-1.06C636.13,1078.88,635.43,1079.53,635.43,1080.7Zm1.06-67.89v1.06h2.12v-1.06Zm1.06-50.39v1.06h1.94v-1.06Zm1.94,2.12v1.94l3.18,4.24v1.06c0,.59-.35.88-1.06.88l1.06,2.12a32.35,32.35,0,0,0-1.06,7.25,11.8,11.8,0,0,1,6.19-2.12v-9.19q-3.89-6.19-5.13-6.19Zm1.06-32.89a2,2,0,0,0,2.12,1.94h2.12q0-1.94.88-1.94a9.34,9.34,0,0,1-.88-3.18Q640.55,930.07,640.55,931.66Zm0,56.58v1.94h4.24q0-1.94-2.12-1.94Zm17.5-9.37-16.44,80.27h1.06l9.19,2.12h1.06q6.19,0,23.69-2.12v-10.26q-10.25-54.1-14.32-61.7-1.06-8.31-3.18-8.31Zm-16.44,102.9v5.13h3.18v-1.06Q643.2,1081.77,641.61,1081.77Zm1.06-89.46v1.06h2.12V992.3Zm1.06-53.57v2.12h1.06v-2.12Zm1.94,19.63v3c1.42,0,2.12-.65,2.12-1.94Zm2.12-60.65a8.11,8.11,0,0,0,3.19.89l4.07-1.95,6.19,1.06h1.95a1.87,1.87,0,0,0,2.12-2.12v-1.06q0-1.94-2.12-1.94H657c0,2-.65,3-1.94,3L654,893.46c.71,0,1.06-.29,1.06-.88Q647.8,892.58,647.8,897.71Zm13.44,20.51q0,2.65-8.31,8.31v3q3,0,6.19,8.31,3.18,0,3.18,1.94V943a9,9,0,0,0-5.3,1.94h-3V943l3-4.25v-1.94h-4.07c-.95,0-1.94,1-3,3v2.13l1.06,1.94a8.14,8.14,0,0,1-3.19,1.06l2.13,3.18a.94.94,0,0,1-1.06,1.06c0,.59.35.88,1.06.88l-1.06,5.13v2.12c.23,1.41.94,2.12,2.12,2.12,0-.71.29-1.06.88-1.06l2.12,3a11.76,11.76,0,0,1,5.13-.88v-2.12q-5.13,0-5.13-6.19,0-1.59,9.19-5.13,4.95,0,8.31,8.13h1.06v-1.95h1.94l-.88,1.95h5.13v-.89l-2.13-3.18,1.06-7.25-2.12-.88L671.49,947a1.88,1.88,0,0,1-2.12-2.12V943l2.12-3.19v-1.06q-8.31,0-8.31-10.25l-1.95,1.06h-1.06a1.88,1.88,0,0,1-2.12-2.12q5.13-4.07,8.31-4.07l-1.06-2.12h2.12q1.41,0,3,3.18v2.12h-2.12v4.07q2.83,7.25,9.37,7.25V933.6q-5.13-1.06-5.13-4.07,0-1.24,1.06-10.26h-2.12A58.14,58.14,0,0,0,661.24,918.22ZM647.8,1085.83V1088H651v-2.12Zm2.13-199.44v1.94a1.72,1.72,0,0,0,1.94-1.94Zm0,29.7v3.18H651V916.1Zm0,14.5v3H651v-3Zm0,35h6.19a1.88,1.88,0,0,0-2.12-2.12h-2.12A2,2,0,0,0,649.93,965.6Zm1.94-58.7,1.06,5.13h2.12V906.9Zm6.19-2.12v5.13q0,3.19-4.07,3.19v1.06a.94.94,0,0,0,1.06,1.06q-2.12,4.07-2.12,6h2.12q0-5.12,1.94-5.13,1.06,0,6.19-9.19Q659.83,904.78,658.06,904.78ZM657,970.73v1.95h1.06v-1.95Zm2.12-14.5q1.77,0,3.18,5.13-3.18,5.13-3.18,7.25a.94.94,0,0,1,1.06,1.06l4.07-1.06,5.13,1.06q2.83,0,9.37-3.18a7.73,7.73,0,0,0,4.07,1.06v-3h-7.25c-1.3,0-1.94-.71-1.94-2.12l.88-5.13h-3v1.06a7,7,0,0,1,1.06,3l-2.12,1.06a.94.94,0,0,0-1.06-1.06.94.94,0,0,1-1.06,1.06q-2.3-4.42-5.13-5.13l1.06-2.12V950H662.3Q659.12,951.11,659.12,956.23Zm1.06-73v4.07q1.41,0,3-3l-1.95-1.06Zm1.06,87.52v3h1.06v-3Zm0,103.79v4.24h1.95v-4.24Zm10.26-97.6,1.06,1.94v1.06q0,3.18-4.24,3.18v1.95l2.12-1.06,2.12,1.06q.35-1.95,1.94-1.95l3.18,1.95h3q1.59,0,4.24-4.07v-1.06h-1.06q-3.36,2.13-5.13,2.12,0-1.41-5.13-5.13Zm-3.18,9.19v1.06h3.18v-1.06Zm5.3,91.59a8.31,8.31,0,0,1-2.12,5.13h2.12q1.41,0,3-4.07l-2.12-1.06ZM678.75,947v5.13h.88q0-2.12,4.24-5.13Zm4.07,136.85v1.95q0,1.59,3,3.18a7.84,7.84,0,0,1,2.12-5.13l-1.06-5.13Q685.46,1078.76,682.81,1083.89Zm3-127.65v4.24h1.06v-4.24Zm0,5.13v2.12h1.06v-2.12Zm1.06,96.72v3.18l4.07,1.06v-4.24Zm2.12,23.69q0,1.42,3,3.18v-3.18Zm4.07-80.27v5.13h1.06q0-1.59,2.12-4.07l-2.12-1.06Zm0,89.46v2.12c.23,1.42.94,2.12,2.12,2.12l1.06-2.12a1.88,1.88,0,0,0-2.12-2.12Zm1.06-46.15v3q.35,2.12,2.12,2.12v-3.18Q696.25,1044.82,694.13,1044.82Zm1.06,26.7q1.41,9.37,6.19,14.32V1089q0,1.95-3.18,1.94V1092l5.13,9.37h1.06a1.87,1.87,0,0,0,2.12-2.12q0-2.65-3.18-7.25,0-6.19,4.24-6.19v-9.19a1.87,1.87,0,0,0-2.12-2.12v6.19h-3.18q-1.06,0-4.07-8.13h-1.06l1.06-2.12v-1.06h-1.06A2,2,0,0,0,695.19,1071.51Zm1.94-11.32v1.06h2.12v-1.06Zm3.18-47.38v2.12h1.06v-2.12Zm0,16.44v2.12h1.06v-2.12Zm3,33.95v2.12h1.06v-2.12Zm1.06,39.08v1.06h2.12v-1.06Zm13.44-8.13v2.12c1.3,0,1.95-.7,1.95-2.12Z"/></svg>