<svg id="Capa_1" data-name="Capa 1" xmlns="http://www.w3.org/2000/svg" xmlns:xlink="http://www.w3.org/1999/xlink" viewBox="0 0 809.89 1242.54"><defs><style>.cls-1{fill:none;}.cls-2{fill:#0d56a1;}.cls-3{fill:#f6a733;}.cls-4{clip-path:url(#clip-path);}</style><clipPath id="clip-path"><circle class="cls-1" cx="404.45" cy="333.92" r="308.78"/></clipPath></defs><title>DOÑA FRIDA logo</title><path class="cls-2" d="M64.08,500.87l-3.48-7.34c-3-6.26-9.48-9.36-16.73-5.92S35,498.08,37.93,504.29l6.37,13.42,36-17.08-2.88-6.08Zm-16.59,7.88L44,501.41a5.48,5.48,0,0,1,2.75-7.72,5.49,5.49,0,0,1,7.77,2.73L58,503.76Z"/><rect class="cls-2" x="25.39" y="467.3" width="39.82" height="6.72" transform="translate(-165.04 47.19) rotate(-20.92)"/><path class="cls-2" d="M54.81,434.8a14.24,14.24,0,0,0-17.68-9.74l-25,7.24L14,438.76l25-7.24A7.55,7.55,0,0,1,43.2,446l-25,7.24L20,459.72l25-7.24A14.24,14.24,0,0,0,54.81,434.8Z"/><path class="cls-2" d="M46.52,402.66,32,405.19l-1-5.86L44.1,388.74l-1.33-7.65L29,392.69A12.15,12.15,0,0,0,16.06,387a12.21,12.21,0,0,0-10.2,14.48l2.54,14.63,39.26-6.83Zm-32.63,5.67-1.3-7.49c-.64-3.67,1-6.58,4.63-7.21s6.2,1.55,6.84,5.22l1.31,7.5Z"/><path class="cls-2" d="M41.43,367.24,34,364.74l-.93-15.07,7-3.39-.47-7.59L0,359.29l41.9,15.54Zm-26.25-8.89,11.77-5.7.61,9.91Z"/><path class="cls-2" d="M13.74,320.09a6.67,6.67,0,0,0,6.49,6.9,6.37,6.37,0,0,0,6.84-6.34,6.68,6.68,0,1,0-13.34-.56Z"/><path class="cls-2" d="M42.27,293.06l-14.62-1.85,1-8.05c.87-6.88-2.94-13-10.89-14s-13.12,4-14,10.84L1.92,294.72l39.5,5ZM22,282.31l-1,8.05L9.44,288.9l1-8.05a5.48,5.48,0,0,1,6.47-5A5.49,5.49,0,0,1,22,282.31Z"/><polygon class="cls-2" points="52.26 239.03 45.7 237.52 41.65 255.17 32.07 252.97 35.66 237.34 29.11 235.83 25.52 251.46 15.94 249.26 20 231.61 13.44 230.1 7.88 254.3 46.7 263.23 52.26 239.03"/><path class="cls-2" d="M57.62,221.62l-13.95-4.78,1.93-5.63,16.6-3,2.52-7.34L47,204.43a12.15,12.15,0,0,0-8.58-11.2A12.21,12.21,0,0,0,22.57,201l-4.82,14L55.43,228ZM39.77,207.46l-2.47,7.19-11-3.78,2.47-7.19c1.21-3.52,4-5.3,7.53-4.09S41,203.94,39.77,207.46Z"/><path class="cls-2" d="M74.94,179.37a14.24,14.24,0,0,0-6.84-19L44.52,149.27l-2.86,6.08,23.58,11.11a7.55,7.55,0,0,1-6.43,13.66L35.22,169l-2.86,6.08,23.58,11.1A14.24,14.24,0,0,0,74.94,179.37Z"/><path class="cls-2" d="M754.57,193.29c11.83-5.23,3.59-19.64,10.07-22.5a4,4,0,0,1,5.45,2.34,4.56,4.56,0,0,1-1.73,5.8l5,4.4a11.07,11.07,0,0,0,2.44-12.9c-2.43-5.49-8-8.33-14-5.67-11.07,4.9-2.52,19.11-9.81,22.33a5.52,5.52,0,0,1-7.52-3.07,6.72,6.72,0,0,1,2.1-8.17l-5-4.48a13.25,13.25,0,0,0-3.14,15.53C741.23,193.31,747.85,196.26,754.57,193.29Z"/><rect class="cls-2" x="747.6" y="201.39" width="39.85" height="6.73" transform="translate(-24.14 270.21) rotate(-19.66)"/><polygon class="cls-2" points="754.19 226.8 755.89 233.31 779.56 227.13 760.84 256.77 800.47 246.42 798.78 239.92 775 246.12 793.73 216.49 754.19 226.8"/><path class="cls-2" d="M783.9,264.75a20.47,20.47,0,0,0-17.38,23.35,19.24,19.24,0,0,0,3.6,8.84l8.29-1.18a12.56,12.56,0,0,1-5.16-8.77,13.6,13.6,0,1,1,26.94-3.76c.52,3.69-.28,6.51-2.48,9.8l8.25-1.17a19.23,19.23,0,0,0,1-9.49A20.42,20.42,0,0,0,783.9,264.75Z"/><polygon class="cls-2" points="770.06 333.64 776.79 333.4 776.15 315.3 785.97 314.95 786.54 330.99 793.26 330.75 792.7 314.71 802.52 314.36 803.16 332.47 809.89 332.23 809.01 307.4 769.18 308.81 770.06 333.64"/><polygon class="cls-2" points="800.63 377.32 767.71 373.46 766.92 380.18 806.47 384.83 808.06 371.27 801.43 370.5 800.63 377.32"/><path class="cls-2" d="M790.77,405.31c-6.87-1.51-13.83,2-15.81,9.08l-11.6-11.33-1.65,7.53,15.2,14.93a18.45,18.45,0,0,0,8.82,5.16,12.93,12.93,0,0,0,5-25.37Zm3.55,14a6.62,6.62,0,1,1-5.09-7.68A6.49,6.49,0,0,1,794.32,419.31Z"/><path class="cls-2" d="M781.87,442.87c-6.68-2.19-14,.61-16.63,7.46l-10.41-12.43-2.39,7.33,13.64,16.37a18.45,18.45,0,0,0,8.26,6,12.93,12.93,0,0,0,7.54-24.74ZM784,457.16a6.62,6.62,0,1,1-4.3-8.15A6.49,6.49,0,0,1,784,457.16Z"/><path class="cls-2" d="M770.69,482.14a10.62,10.62,0,0,0-7.62-.41,12.65,12.65,0,0,0-7.18-8.47,13,13,0,1,0-10.49,23.87,12.65,12.65,0,0,0,11.1-.43,10.63,10.63,0,0,0,5.45,5.34,10.87,10.87,0,0,0,8.75-19.89Zm-14.37,5.55a6.26,6.26,0,1,1-3.14-8.28A6.29,6.29,0,0,1,756.33,487.69Zm13.64,6a4.07,4.07,0,0,1-5.4,2.15,4.14,4.14,0,1,1,5.4-2.15Z"/><rect class="cls-3" x="664.61" y="749.99" width="74.78" height="19.88"/><rect class="cls-3" x="68.75" y="749.99" width="74.78" height="19.88"/><path class="cls-2" d="M452.72,718l4.59,1.9a3.52,3.52,0,0,0,4.68-2.14c.94-2.85,2.16-2.85,2.69-2.85,1.24,0,2.4.82,3.87,1.85,2.29,1.61,5.13,3.61,9.82,3.61,6.54,0,11-3.79,13.37-11.27a3.54,3.54,0,0,0-2.06-4.29l-4.09-1.66a3.48,3.48,0,0,0-2.86.11,3.65,3.65,0,0,0-1.88,2.35c-.65,2.48-2,2.82-3.19,2.82-1.79,0-3.1-1-4.76-2.23-2.12-1.6-4.77-3.58-9.11-3.58-6.16,0-10.81,3.94-13.1,11.08A3.54,3.54,0,0,0,452.72,718Z"/><path class="cls-2" d="M213.82,724H196.4a3.5,3.5,0,0,0-3.5,3.5v64.89a3.5,3.5,0,0,0,3.5,3.5h18a35.9,35.9,0,0,0,35.94-36.64C250,739.79,233.6,724,213.82,724Zm21.93,35.94a21.09,21.09,0,0,1-21.31,21.31H208a.5.5,0,0,1-.5-.5V739.11a.5.5,0,0,1,.5-.5h6.41A21.09,21.09,0,0,1,235.75,759.93Z"/><path class="cls-2" d="M346.4,723.09a36.84,36.84,0,1,0,36.84,36.84A36.88,36.88,0,0,0,346.4,723.09Zm22.21,36.84a22.21,22.21,0,1,1-22.21-22.21A22.23,22.23,0,0,1,368.6,759.93Z"/><path class="cls-2" d="M495.69,724H488a3.49,3.49,0,0,0-3.49,3.49v36.71l-35.38-37.83a3.49,3.49,0,0,0-6,2.38v63.64a3.5,3.5,0,0,0,3.5,3.5h7.63a3.5,3.5,0,0,0,3.5-3.5V755.85l35.38,37.83a3.49,3.49,0,0,0,6-2.38V727.47A3.49,3.49,0,0,0,495.69,724Z"/><path class="cls-2" d="M612.1,728.55a28.8,28.8,0,0,0-22.56-7c-14.33,1.73-25.14,14.2-25.14,29v42.32a3.53,3.53,0,0,0,3.53,3.53h6.86a3.53,3.53,0,0,0,3.53-3.53V771a.5.5,0,0,1,.5-.5h28.53a.5.5,0,0,1,.5.5v21.83a3.53,3.53,0,0,0,3.53,3.53h6.87a3.53,3.53,0,0,0,3.53-3.53V750A28.72,28.72,0,0,0,612.1,728.55ZM607.86,750v6.08a.5.5,0,0,1-.5.5H578.83a.5.5,0,0,1-.5-.5v-5.69a15.08,15.08,0,0,1,13.4-15.1q.69-.06,1.38-.06a14.6,14.6,0,0,1,9.94,3.87A14.81,14.81,0,0,1,607.86,750Z"/><g class="cls-4"><path class="cls-2" d="M598.78,164.9c-15.91-8.06-32.18-15.22-49.46-19.91-7.19-1.95-8.73-4.2-8.61-11.78.15-9.43-.06-12.33.44-21.74.47-9-.36-12.5-9.42-16.26C520.21,90.44,515.78,87,504,83c-16.92-5.78-80.1-17.22-139-3.44a35.32,35.32,0,0,0-12.93,6.32c-4.15,3.21-8.19,27-12,32.66-11.9-4.38-34.47-11.86-47-13.92a10.44,10.44,0,0,0-4.68.48,125.09,125.09,0,0,0-29.68,14.55C232.55,136.51,207,154.18,183,174.19c-12.71,10.61-23.14,22.82-30.16,37.44a175.34,175.34,0,0,0-14.62,48,296.48,296.48,0,0,0-2.25,76c2.06,21.56,6.62,42.53,16,62.13a147.63,147.63,0,0,0,38,49.25c6.86,5.81,14,11.35,21.15,16.74,1.13.85,3.58.77,4.94.12.68-.32.82-3.09.31-4.41-2-5.31-4-10.68-9.23-14.08-3-2-5.56-4.75-8.41-7.25h0a3.93,3.93,0,0,0-1.68-6.95,8.89,8.89,0,0,1-1.64-.45c-2.3-.93-5.52-.29-6.77-3.52l.38-.5a2.52,2.52,0,0,0,.37-5l-1.91-.18c-6-.52-8.24-2.09-10.24-7.61a71.87,71.87,0,0,0,7.41.87,63.06,63.06,0,0,0,9.76-.5,1.67,1.67,0,0,0,.67-.27,2.34,2.34,0,0,0-.38-4,2.68,2.68,0,0,0-.68-.23c-2.4-.45-4.93-.2-7.34-.61a120.85,120.85,0,0,1-13.16-2.74,9.47,9.47,0,0,1-7.12-7.07,58.83,58.83,0,0,0,33.15,3.94,2,2,0,0,0-.38-4h-.06c-12.29.23-23.83-2.64-35.22-7.15-4.87-1.93-6.85-4.92-8.47-10.06,3.44,3.73,33.66,13.32,46.57,10.64,4.88-1,5.26-4.38,1.88-5a5.42,5.42,0,0,0-.95-.14c-15.9-.14-30.83-4.33-45.46-10-3.81-1.47-6.16-3-6.93-6.65-2.06-9.79-4.41-19.56-5.81-29.45-1.79-12.57-3.1-25.29-.88-38A295.64,295.64,0,0,1,173,217.16c7.17-13.74,15.69-26.4,28.13-36,7.45-5.77,14.65-11.86,22.15-17.56,22.38-17,45.1-33.39,72.45-41.84,3.86-1.19,7.34-1.83,11.29-.43,7.89,2.81,15.93,5.23,23.87,7.92a13,13,0,0,1,4.4,2.58,27.93,27.93,0,0,0,17.19,6.77c10.62.69,21.26,1.28,31.89,1.33,26,.12,52-.45,78-.07,23.63.34,46.82,4.43,69.75,10.09,23.54,5.82,46.28,13.67,67.36,25.88,7.48,4.33,13.42,10.06,17.24,17.84,9.76,19.83,19.64,39.61,29.17,59.56,14.18,29.65,24.41,60.69,32.57,92.5,1.87,7.31.79,13.57-1.77,20.14a13.37,13.37,0,0,1-6.21,7.23,117.3,117.3,0,0,1-50.08,15.19c-1.67.11-1.79,3.66-.15,3.74,18.1.91,34.51-4.7,50.24-13.6-.84,5.64-1,6.15-4.76,8-13,6.33-26.43,10.86-41,11.72-4.33.26-3,4,1,4,12.72,0,26.73-3.89,38.69-9-.9,4.49-3.22,6.4-6.35,9-5.94,4.87-21.7,6.64-29.53,5.94-2.36-.21-.91,3.15.21,3.45,9.52,2.56,19.61,1,28.18-3-1.45,5.36-5.39,6.51-9.29,9.45s-12.61,1.5-16.7,1c-1.81-.2-1.48,2.52.08,3.45,4.48,2.66,10.21,3.76,15,2.23-3.45,6.53-9.87,6.39-15.94,7.09a1.57,1.57,0,0,0-.37,3,33.69,33.69,0,0,0,4.33,1.32c.19,10.69-4.83,19.05-7.72,21.5a46.94,46.94,0,0,0-5.93,5.34c-1.44,1.73-3.68,4.69-3.09,5.85,1.6,3.15,7.85,0,8.19-.26,9.66-6.68,19.14-13.48,22-26,.37-1.62,1.46-3.78,2.8-4.37,8.79-3.92,15.71-10.35,22.46-16.83,13.86-13.31,22-28.94,18.1-49-1.87-9.63-3-19.41-5.11-29a412.27,412.27,0,0,0-29.22-86.54c-9.89-21.14-20.5-41.94-30.34-63.1C620.26,180.82,611.28,171.24,598.78,164.9Zm-72.6-35.36c-.35,1-1.76.53-2.3.37-5.71-1.65-16.94-4.52-24.5-5.23-3.18-.3-3.57.92-3.81,1.9s.74,2,5,2.64c3,.46,10.19,2.21,15.58,3.52a1.1,1.1,0,0,1,.93,1.29c0,.65-.71,1.29-2,1.17-6.89-.6-19.51-1.89-28-2.67-12.81-1.19-25.75-1.15-38.63-1.49-15.35-.4-30.71-.6-46.06-1a25.08,25.08,0,0,1-4.84-.85,1.35,1.35,0,0,1-1-1.4v0a.88.88,0,0,1,.77-.82,31.76,31.76,0,0,1,4.84-.5c11.87.24,36.25-.61,36.65-.59,2.83.09,3-4.14.23-4.4-8-.74-40-.73-48.36-2.21-1.68-.3-1.37-4.14.33-4.23h0c8.16-.34,16.34-.67,24.49-.44,7.76.23,15.5,1.19,23.26,1.76l.74,0c3.49.15,4.07-5,.6-5.51-.5-.07-1-.11-1.54-.14-12.87-.71-25.74-1.32-38.61-1.92-2.63-.12-5.27,0-8.06,0-.28-3.93,1.08-5.87,4.75-5.78,6.53.17,13.08.22,19.6.59,8.78.5,17.54,1.37,26.33,1.81a2.22,2.22,0,0,0,.86-.15,3.11,3.11,0,0,0,1.22-4.92,2.78,2.78,0,0,0-.74-.61,12.57,12.57,0,0,0-5.34-1.11c-13.49-.64-27-1.19-40.47-1.78-.8,0-1.59-.21-2.66-.35.54-4.63,3-5.71,6.52-5.57,13.28.5,26.56.92,39.84,1.34l1.23,0a2.53,2.53,0,0,0,.2-5.06l-.58,0c-10.41-.58-20.83-1.11-31.24-1.74-2.06-.13-4.09-.64-6.23-1,.88-4.29,3.7-3.6,6-3.86,23.86-2.75,47.33.17,70.76,4.52,13.14,2.44,29.94,7,41.85,13.24,1.26.66,2.3,1.19,1.85,2.3s-1.47.67-2.59.38c-4.12-1.05-13.72-5.18-22.39-5.36a1.91,1.91,0,0,0-2.12,1.71,2.27,2.27,0,0,0,1.63,2.75c1.12.32,17.62,4,23.92,6.91,3.24,1.5,2.14,4.64.9,5.23-3.45-1.84-20.74-6.93-25.2-6.64-.18,0-2.1-.29-2.42,1.6-.47,2.75,1.65,3.12,1.77,3.14,3.15.51,19.09,4.46,23.8,6.88.59.3,2.44,1.33,2.19,2.36s-.78,1.74-2.4,1.29c-5.21-1.43-16.4-4.53-21.78-5.08-2.08-.21-4.62-.52-5,2.07-.38,2.32,2.4,2.11,4.6,2.6,7.15,1.58,17.81,4.09,23.19,6.21C525.33,127.39,526.66,127.86,526.18,129.55Z"/><path class="cls-2" d="M473.19,333.17A29.67,29.67,0,0,0,457,321.79c-7.12-2.06-13.69-.73-20.27,1.71-3.63,1.35-7,1.64-10.5-.62-5.13-3.32-8.36-1.6-8.62,4.62-.22,5.1,0,10.21,0,15.44,3.9,2.91,6.4,2.42,9.51-.63,2.64-2.58,6.51-4,10-5.63a37.84,37.84,0,0,1,5.81-1.88c9.16-2.73,18-2.23,26.48,2.47,1.21.67,2.86.56,4.3.81C473.51,336.42,474,334.31,473.19,333.17Z"/><path class="cls-2" d="M435.4,291.84c8.49-1.61,15.72.64,23,4a53.59,53.59,0,0,0,7.95,3.24c1.06.3,3.27-.44,3.59-1.25a6,6,0,0,0-.56-4.33c-.48-1-1.86-1.51-2.88-2.2-12.94-8.75-27.56-12.26-42.85-13.54-2.3-.19-4.66.42-7.54.72C419.32,289.21,425.41,293.73,435.4,291.84Z"/><path class="cls-2" d="M567.4,549.21c-4.59-.67-7.61-3.2-7.91-8.5s-3.45-7.55-8.68-8.59c-15.26-3-30.35-7-45.63-9.84-7.08-1.34-10-5.3-11-11.83.63-.56.76-.76.94-.82.76-.25,1.54-.47,2.32-.66,9.25-2.27,19-3.53,23.77-13.79.77-1.64,3.47-2.6,5.46-3.42,7.06-2.91,13.72-.54,20.16,2.18,4.14,1.74,7.09,1,9.87-2.24a11.71,11.71,0,0,1,12.36-3.49c3.45,1,7.37.9,11,.6a20.61,20.61,0,0,0,7.57-2.29c5.61-2.89,12.38-5,16.21-9.5,6-7.08,10.13-15.82,14.79-24a14.68,14.68,0,0,0,1.21-11.29,59.59,59.59,0,0,1-1.51-12.62c-.13-3.87.6-7.77.62-11.65,0-7.26-1.7-13.77-8.21-18.2-2.62-1.78-4.6-4.36-4.13-7.76.72-5.23,1.6-10.46,2.8-15.6.93-4,2.85-7.71,3.64-11.69,2.58-13,1-26-.66-39.06-.9-6.87-4.13-11.93-10-15.23-6.05-3.39-12.08-7-18.46-9.59-5.9-2.44-9.71-5.2-9.15-12.49.46-6.06-2.2-8.87-8-10.76a49.42,49.42,0,0,0-6.55-1.58c-3.09-.55-4.51-2.41-5-5.39-.49-3.23-1.13-6.44-1.81-9.63-1-4.64-3.69-7.42-8.45-8.69a13.32,13.32,0,0,1-6.3-4.16,30.94,30.94,0,0,1-4.8-8.25,13.71,13.71,0,0,0-8.28-7.7,29,29,0,0,1-10.06-5.44,74.76,74.76,0,0,1-16.82-21.73,16.26,16.26,0,0,0-7-7.23c-6.28-2.86-12.89-5.69-19.64-6.73-33.32-5.15-66.79-6.78-100.26-1.23-10.06,1.67-20.27,2.87-29.38,8.32-7.13,4.26-19.31,10.3-26.89,13.71-2.95,1.33-16.45,7.3-19,8.77h0a259.66,259.66,0,0,0-30.32,16.8h0c-1.27.65-2.54,1.29-3.81,1.93-3.54,1.8-7.13,3.44-10.75,5.08l-5.51,2.21c-1.84.76-3.73,1.3-5.6,2a145.39,145.39,0,0,1-23.17,5.34h-.05a2,2,0,0,0,.05,4,78.62,78.62,0,0,0,25.23-1.55c3.58-.73,7.11-1.62,10.61-2.65a3.1,3.1,0,0,1,3.95,2.56q.06.43.13.86a3.07,3.07,0,0,1-2.21,3.47h0l-1.15.35-1.18.28-2.34.61-2.34.66h0c-.8.16-1.59.36-2.38.55-1.59.35-3.17.82-4.79,1.15l-4.88.87c-1.63.32-3.28.53-4.94.68l-5,.53c-3.33.25-6.68.39-10,.59h-.1a1.79,1.79,0,0,0,0,3.56c3.4.25,6.82.56,10.24.76l5.16.14c1.72,0,3.45.12,5.18.05a110.17,110.17,0,0,0,21.2-2.37,1.5,1.5,0,0,1,1.81,1.35v0a2.9,2.9,0,0,1-2,2.93l-1.79.6a107.82,107.82,0,0,1-16.46,3.92,135.19,135.19,0,0,1-17.14,1.24h-.07a1.92,1.92,0,0,0-.42,3.78,71.43,71.43,0,0,0,18.23,2,78.4,78.4,0,0,0,14.91-1.94,1.6,1.6,0,0,1,1.73,2.38l0,0a1.69,1.69,0,0,1-.59.58,34.25,34.25,0,0,1-3.7,1.91,42.05,42.05,0,0,1-12.92,3.15c-4.61.48-9.4.45-14.31.52h0a1.75,1.75,0,0,0-.52,3.41,60.1,60.1,0,0,0,15,3q1.26.08,2.54.08a1.2,1.2,0,0,1,1.08,1.72,10.32,10.32,0,0,0-.68,2l-.39.07a28.57,28.57,0,0,1-3.06.46c-1.11.11-2.24.3-3.36.45-2.18.2-4.38.39-6.63.71l-.17,0a2.08,2.08,0,0,0-.26,4.05c2.25.63,4.53,1.23,6.85,1.64,1.17.16,2.34.35,3.52.47a30.71,30.71,0,0,0,3.73.28h0c.31,1.71.68,3.42,1,5.12h0c-3.34.5-6.74.82-10.14,1.09h-.09a2.28,2.28,0,0,0-2,2.76,2.36,2.36,0,0,0,2.22,1.79c3.71.22,7.46.4,11.22.35h0c.79,5,.93,10-1.15,15-2.9,7-9.69,12.07-15.88,16.21h0c-3.46,3.42-7.4,7.31-4.84,12.61,3.18,6.59,2.65,12.71.46,19.2a7.7,7.7,0,0,0-.27,3.39c.45,3.8-1.36,6.52-3.62,9.35-5.4,6.75-9.78,14-11.82,22.66-.66,2.76-.85,4.93.47,7.55,4.58,9.13,8.74,18.48,13.34,27.6a18.27,18.27,0,0,1,1.17,15.22c-2.6,7.61-2,14.95,5.32,20.34,3.13,2.29,5.8,5.2,8.92,7.52,7,5.22,14.44,8.67,23.35,4.75a5,5,0,0,1,2.95-.67,10.3,10.3,0,0,1,4.51,2.34c1,1.1,1.36,2.92,1.92,4.46,2.71,7.44,4.23,8.61,12,8.77a25.77,25.77,0,0,0,6.72-.43c4.12-1,7.7-.55,10.75,2.52a10.17,10.17,0,0,0,11.75,2.54c.42-.16,1.08.35,1.6.53-.26,5.6-3.39,8-8.46,9.76-13.91,4.8-27.59,10.24-41.36,15.44-4.55,1.72-8.47,4.36-10.69,8.75-1.56,3.09-4.07,4.18-7.09,5.23-7.71,2.68-15.32,5.67-22.93,8.65a14.75,14.75,0,0,0-8,7.12c-.22-.17-3,4.44-6.52,9.77-2.86,4.39-52.43,78.9-55.07,82h13.47c2.5-3.41,48.16-70.89,51.5-75.1,3.83-4.83,7-8.86,6.76-9h0a32.23,32.23,0,0,1,10-8,50.8,50.8,0,0,1,19.9-5.59h0c-.22,1.49-.29,2.29-.47,3.07-2,8.53-16.26,84.79-17,94.66H308c1.29-23.16.05-80,4.18-97,2.65-10.89,4.22-22.15,9.63-32.22,1.18-2.2,2.76-4.18,4.19-6.31h0c8.3,6.41,8.84,4.19,7.06,15.59a98.68,98.68,0,0,0-1.25,15.28,10.44,10.44,0,0,0,2.56,6.42C339.53,576,343.88,582,344.5,590a32.52,32.52,0,0,0,.76,6.07c2.57,9.36,5.08,18.73,7.74,28.07h0c3.91,10.17,7,20.61,10.11,31,1.18,4,3.08,9.36,4.47,13.4h39.35c1-6.22,5.06-26.17,4.67-26.16h0c1.23-8.28,2.46-16.6,2.85-24.94.27-5.78,3.11-9.59,6.65-13.17a51.92,51.92,0,0,1,4.88-4.15c3.81-2.84,5.8-6,5.17-11.22-1.47-12,.54-23.11,9.74-32.27,2.88-2.86,4.64-7.29,5.82-11.33,3.2-11,6-22.1,8.58-33.24,1.6-6.86,7.56-9.2,12.23-12.91.49-.39,1.59-.07,2.4,0,5.38.55,8.51,3.75,9.28,9.51,1.09,8.15,3.36,16.08,5.74,24a14.84,14.84,0,0,1-.2,10.2c-8.9,23-17.36,46.21-27.29,68.85-4,9-7.13,18.37-10.25,27.76-.67.09-4.68,20.1-7,29.09h0c38.88,0,96,.73,97.66,0h0c.6-4.17,3.66-54.1,5.41-60.67h0c.74-5.55,1.46-11.11,2.08-16.68.87-7.83,3.87-13.93,11-17.85,3.2-1.76,5.81-4.59,9-6.38a8.59,8.59,0,0,1,6.15-.94h0c37.76,17.55,81,69.44,103.55,102.53h23.63C679.16,643.45,614.93,556.14,567.4,549.21Zm-138.69,6.52c-6.28,17.92-12.38,35.91-18.94,53.72a54.29,54.29,0,0,1-8,15c-4.76,6-9.89,11.7-15.19,17.56h0q-6.51-.37-13-1h0q-6.12-16.21-12.15-32.45c-1.37-3.68,3.95-23.57,7.18-25.82a166.57,166.57,0,0,1,16-10.09c13.66-7.35,27.5-14.38,41.26-21.55,1.44-.75,2.85-1.57,5.62-3.09h0C430.24,551.6,429.44,553.65,428.71,555.73ZM480,454.67c-4,6.68-8.83,12.74-15.39,17.24q-15.44,10.61-30.71,21.47c-4.92,3.51-10,6.35-16.26,6.32-1.42,0-2.84.41-4.27.53-6.53.54-13.49,2.67-19.46,1.08-5.7-1.51-10.42-6.83-15.47-10.61-6-4.52-11.88-9.27-17.94-13.76-3.83-2.84-5.07-6.85-5.51-11.19-.5-5,.64-9.69,3-14.78h0c2.82.59,5.55,1.11,8.26,1.73,5.76,1.32,11.49,2.82,17.28,4a16.92,16.92,0,0,0,12.36-1.94c4.21-2.4,9-3.72,13.64-5.37,26.14-9.38,39.34-19.79,39.34-19.79,2.11,5.71,4.75,8.84,9.92,13.9,3.39,3.32,5.55,2.37,7,1.46,1.79-1.14.86-5.68-.91-9.86-3-7.13-3.49-12.85-3.47-21,0-1.6-2.17-3.8-3.88-4.72q-4.78-2.55-9.66-4.94a4,4,0,0,0-5.25,1.59,40.81,40.81,0,0,1-2.34,3.59,2.52,2.52,0,0,0,.66,3.63l0,0h0c-6.93,4.42-59.51,12.67-74.76,11.81h0c1.31-2.52,2.16-4.91,3.63-6.84,2.82-3.73,5.51-7.2,6.49-12.17,1.36-6.92,7.12-9.68,13.83-7.28,3.9,1.39,7.42,1.27,10.19-1.68,3.87-4.13,11.55-2.74,17,.6,2.64,1.6,5.49.63,7.42-1.65a8.06,8.06,0,0,0,1.3-2.18,9.31,9.31,0,0,0-.48-7.67,35.81,35.81,0,0,1-2.62-6.32,6.24,6.24,0,0,0-8.4-4.24c-.49.2-1,.41-1.44.64-8.08,4-14.8,1-20.84-4.13-5.53-4.69-5-11.11-3.78-17.44.82-4.14,2.44-10.84,3.57-14.91,2.71-9.75,2-19.5.29-29.33-.39-2.19-.84-4.62-.31-6.69,1.82-7.11-.86-13.38-3.32-19.6-2.09-5.3-4.33-5.61-10.07-4.38a63.31,63.31,0,0,1-13.51,1.41c-7.28,0-14.31.82-20.82,4.19-8.9,4.61-17.7,9.4-26.52,14.16a9,9,0,0,0-2.87,2.26c-.87,1.13-2,2.62-1.87,3.84.26,2.36,2.32,2.15,4.3,2.14,3.62,0,7.26.7,10.85.48,2.5-.15,5.51-.68,7.31-2.21,6.6-5.59,13.24-7.15,21.09-2.64,4.56,2.61,9.51,4.54,14.4,6.83h0c4.56,8.95,4.56,8.95,4.3,16.28h0c-5.61-4.13-11.53-4-17.52-2.48-8.81,2.18-17.11,5.42-24,11.65a38.73,38.73,0,0,1-5.5,3.54h0c2,5.25,3.55,6,8.59,4.56,11.24-3.29,22.89-3.22,34.53-4.88h0c-.58,7.14-.84,13.56-1.74,19.9-.32,2.27-2,4.41-3.38,6.45-5.44,8.31-10,16.87-10.1,27.23,0,1.3-1.77,3.3-3.13,3.74-8.33,2.7-16.78,5.06-25.2,7.52-3.14.92-5.48-.14-7.53-2.65a95.41,95.41,0,0,1-15.2-25.68c-.83-2.13-.21-5.22.63-7.54,2.24-6.15,4.86-12.16,7.53-18.14,1.62-3.62,1.23-6.7-.18-10.49a247.08,247.08,0,0,1-7.31-24.65c-1.26-4.9-1.85-10-2.65-15-.45-2.82.6-5,2.7-7.07,6.42-6.23,12.44-12.8,21.24-16,4.67-1.71,4.77-5.63.78-8.94-2.09-1.73-5.57-2.63-4.52-6.4,1.18-4.22,1.68-8.59,6.83-10.78,19.43-8.26,38.33-17.56,55.64-29.81,4.59-3.24,6.63-2.92,11,.52,9,7.09,18.21,13.95,27,21.29a104,104,0,0,1,11.94,12.33c7.69,9,16.26,16.57,27.13,21.67,5.65,2.65,10.57,6.86,15.85,10.32a11.88,11.88,0,0,1,5.43,8.49c1.91,11.48,4,22.94,6,34.4.76,4.19,1.69,8.35,2.6,12.81h0c4,1,5.25-1.18,6-4,1.14-4.13,2.22-8.28,3.47-12.38a24.28,24.28,0,0,1,3.12-6.61h0a58.11,58.11,0,0,1,1.39,23.48c-1.34,9.48-2.93,19.15-1.6,28.51a63.93,63.93,0,0,1,.9,10.34c-.22,10,.29,17.85-1,27.77-1.67,13.09-4.42,23.64-13.4,33.82C490.56,444.69,481.74,451.67,480,454.67ZM379,434.39,424,426.8h0a4.5,4.5,0,0,1-3.43,4.68c-8.38,2.95-16.68,6.07-25.75,6.27-3.65.08-7.3.66-10.95.9-2.94.2-4.58-1.29-4.92-4.26Zm.48-52.54a.91.91,0,0,1,.09,1.53c-1.68,1.26-5.73,3.09-8.12.76-1.69-1.69-2.52-4.14.56-9.67a.78.78,0,0,1,1.42.14A12,12,0,0,0,379.47,381.85Z"/></g><path class="cls-3" d="M404.45,25.14c170.51,0,308.74,138.23,308.74,308.74S575,642.63,404.45,642.63,95.71,504.4,95.71,333.88,233.93,25.14,404.45,25.14m0-25.14a334,334,0,0,0-130,641.52A334,334,0,0,0,534.42,26.25,331.82,331.82,0,0,0,404.45,0Z"/><path class="cls-2" d="M83.25,850.32q12.37,1.06,13.44,2.12a49.82,49.82,0,0,1,9.19-1.06h4.24q5.84,0,7.07,1.06a52.56,52.56,0,0,1,9.37-1.06H143a122.68,122.68,0,0,0,14.5-1.06q11.32,4.25,11.32,7.25V886.4q-1.24,10.43-10.26,10.43H118.26c-1.3.24-1.95.88-1.95,1.94V964.9q0,1.24,10.26,5.13L140,968.08q16.44,0,16.44,12.38v20.69q0,14.32-14.32,14.32H116.31v102.19a9.32,9.32,0,0,0,.89,4.24q-3.18,11.32-11.32,11.32H80.07q-9.19,0-9.19-17.5-1.06-.71-1.06-9.37,0-6.54,1.06-26.87a90.8,90.8,0,0,0-1.06-12.38q1.06-15.38,1.06-32V1030a155.52,155.52,0,0,0-1.06-20.69,153,153,0,0,0,1.06-20.69v-7.07q0-10.43-1.06-25.81a32.91,32.91,0,0,0,1.06-8.31l-1.06-2.12L71.94,935q-1.06-8.84-2.12-34.12a87.79,87.79,0,0,0,1.06-12.37q0-1.95-2.12-7.25a80.66,80.66,0,0,0,1.06-11.32v-6.19Q73,850.33,83.25,850.32Zm6.19,239.58A7.78,7.78,0,0,1,90.5,1094h3a7,7,0,0,1,1.06-3l-2.12-1.06Zm1.06-61v4.25h1.94v-4.25Zm1.94-82.57v3.18h1.06v-3.18Zm0,29.88v3.18l5.13,1.06v-6.19h-.89Q94,976.22,92.44,976.21Zm1.06-98v1.94h1.06l5.13-.88v-1.06Zm1.06,80.45v3.18c1.41,0,2.12.3,2.12.88a8.07,8.07,0,0,1,3-.88Q99.7,959.41,94.57,958.71Zm1.06,141.45a7.73,7.73,0,0,1-1.06,4.07l2.12,1.06c0-1.06.65-2.41,1.95-4.07v-1.06Zm1.06-156.83-1.06,1.94q0,2.48,7.25,3.18v-3.18Q101.11,945.27,96.69,943.33Zm4.07,56.75q-4.07,9-4.07,12.38l1.95,1.06h4.24v-1.06l-1.06-7.25q1.76,0,3-5.13Zm-3.18,70.2v1.06H99.7v-1.06Zm2.12,21.57-1.06,4.24h3.18V1095a7.13,7.13,0,0,1-1.06-3.18Zm0-207.4v3q.35,2.12,2.12,2.12h1.06V886.4q0-1.95-2.12-1.95Zm1.06,161.07-1.06,1.95v3.18h2.12c0-2.12,1-3.18,3-3.18v-1.06ZM101.82,966q0,1.59,4.07,4.07h1.06v-1.95a1.88,1.88,0,0,0-2.12-2.12Zm0,19.63v1.06q2.83,8.31,4.07,8.31,4.25-1.59,4.24-3.18v-1.06q-4.07-8.31-5.3-8.31C103.88,982.4,102.88,983.46,101.82,985.58Zm3-117.76v1.06h2.12v-1.06Zm0,11.49v1.94q0,1.77,7.25,3.18l1.06-2.12q-2.3,0-6.19-3Zm3.18,8.13,1.06,5.13H111q0-4.07,4.24-4.07V886.4Zm2.12,112.62V1002H111v-1.95Zm1.94-125h1.06a1.87,1.87,0,0,0,2.12-2.12h-1.06C112.78,873.19,112.07,873.9,112.07,875.08Zm1.06,117.75v3q2.48-1.94,4.07-1.94v-1.06Zm1.06,12.38v4.07h1.06v-4.07Zm6.19-118.81q.35,2.12,2.12,2.12,1.94,0,1.94-2.12Zm9.37,107.5v1.94h1.95v-1.94Zm4.07-117.75v2.12h2.12v-2.12Z"/><path class="cls-2" d="M204.19,850.32a126.08,126.08,0,0,0,14.5,1.06l2.12-1.06,1.94,1.06a8.11,8.11,0,0,0,3.18-1.06l12.38,1.06q5.47,0,19.62-1.06,18.57,0,43.32,18.56,16.44,21.75,16.44,43.32v63.12q0,24.4-13.26,41.2v1.06A69,69,0,0,1,317.7,1059v62.94q-1.59,11.32-11.32,11.32H280.57q-8.14,0-9.19-10.26,0-1.06,1.06-8.31l-1.06-5.13a.94.94,0,0,1,1.06-1.06l-1.06-7.25V1094a10.08,10.08,0,0,1,1.06-5.13,8.17,8.17,0,0,0-1.06-3.18q1.06-17.33,1.06-26.7v-1.06q-5.13-16.62-18.74-16.62H239.37v78.5q0,13.44-11.49,13.44H200.12q-2.12,0-8.31-10.26l1.06-10.43v-29.88l1.06-6.19q-2.12-4.06-2.12-11.31v-10.43a126.25,126.25,0,0,1,1.06-14.5l-1.06-1.94a10.05,10.05,0,0,0,1.06-5.13l-1.06-6.19a7.13,7.13,0,0,1,1.06-3.18l-1.06-9.37a117.57,117.57,0,0,1,1.06-13.26L191.81,995q1.06-11.49,1.06-20.69V961.89a52.6,52.6,0,0,0-1.06-9.37q.7-1.77,2.12-14.5-1.06-7.07-2.12-9.19,1.06-21.57,1.06-35.18V862.7Q194.81,850.33,204.19,850.32Zm4.07,41.38v5.13h2.12l1.06-5.13Zm2.12,69.13-1.06,1.94h3.18Q212.5,960.83,210.38,960.83Zm-1.06,92.82v1.06h2.12v-1.06Zm1.06-103.25v2.12a1.88,1.88,0,0,0,2.12-2.12ZM211.44,1066v1.06h2.12V1066Zm1.06-145.51q.35,2.12,1.94,2.12v-2.12Zm4.07,100.25q0,2.65-3,6.19a2.66,2.66,0,0,1,3,3h3.19l-1.06-2.13v-7.07Zm-3,20.51v3.18h.88q3.36-2.12,5.31-2.12v-1.06Zm0,39.25v2.12h.88v-2.12Zm.88-62.94v1.06h2.12v-1.06Zm2.12-123.94-1.06,5.13,4.25,2.12v-2.12l-1.06-5.13Zm-1.06,99.19v4.07q7.25-4.06,7.25-5.13c-1.3,0-1.94-.71-1.94-2.12Q215.5,991.07,215.5,992.83Zm1.06,16.44v1.06q0,2.3,9.37,4.07H227a1.72,1.72,0,0,0,1.94-1.95q-2.3-6.19-4.07-6.19h-1.06v1.94h-2.12l1.06-1.94h-1.06Q216.56,1007.51,216.56,1009.27ZM217.62,874v3.18c0,.95,1.06,1.94,3.19,3v-4.07a1.87,1.87,0,0,0-2.12-2.12Zm0,104.32v2.12h1.06v-2.12ZM221.69,999q0,1.59-1.94,4.07v2.12h1.06q1.23,0,4.07-6.19Zm-1.94,38.19q0,3.54,7.25,5.13v-7.25q0-1.94-2.12-1.94h-2.12Q221.16,1033.15,219.75,1037.21Zm1.94-130.13h2.12V905C222.4,905.2,221.69,905.9,221.69,907.08Zm1.06-26.88v4.24a14.73,14.73,0,0,1,8.31-2.12V877.2H230Q225.41,880.21,222.75,880.2Zm0,141.45,9.37,8.31v-5.13q0-1.06-7.25-5.13Q222.76,1019.89,222.75,1021.65Zm0,41.38v2.12a1.88,1.88,0,0,0,2.12-2.12Zm1.06-13.44h4.07v-2.12h-1.94C224.52,1047.7,223.81,1048.41,223.81,1049.59Zm1.06-157.89v1.94h1.06V891.7ZM225.94,999v2.13l5.13.88h1.06Q232.12,1000.44,225.94,999Zm7.25-129.07v3h.89v-3Zm.89,145.52-.89,5.3h3l-1.06-5.3Zm0-130v.89h2.12v-.89Zm1.06,142.33v1.06h4.24v-1.06q0-1.94-2.12-1.94C235.84,1026.13,235.13,1026.78,235.13,1027.84Zm3.18-141.44v1.06h1.94V886.4Zm1.06,10.43v96q8,3,11.32,3h5.13q10.25,0,15.56-14.32V970a30.72,30.72,0,0,1,1.06-8.13l-1.06-5.3q1.06-30.41,1.06-45.26-6.19-14.5-19.62-14.5Zm0,125.89v1.06h1.94v-1.06Zm.88-147.63v5.13c1.41,0,2.12-.65,2.12-1.94V877.2A1.87,1.87,0,0,0,240.26,875.08Zm0,141.45v1.06q1.59,4.07,3.18,4.07l1.06-5.13Zm9.37-6.19v3.18a1.87,1.87,0,0,0,2.12-2.12v-1.06ZM259.88,886.4v2.12H262A1.87,1.87,0,0,0,259.88,886.4Zm0,129.07v3.18q5.31-1.41,5.3-3.18ZM264.13,871v4.07q4.07-1.59,4.07-3A7.74,7.74,0,0,1,264.13,871Zm7.25,156.83V1030h1.06v-2.13Zm3-12.37v1.06h5.13v-1.06a8,8,0,0,1-.89-3h-1.06Q276,1012.46,274.38,1015.47Zm1.06,14.5v2.12h1.06V1030Zm1.06-8.31v1.06q.35,2.12,2.12,2.12l.89-2.12v-1.06Zm2.12-15.38v1.94h.89v-1.94Zm.89-113.69v2.12q.35,2.12,2.12,2.12l1.06-2.12v-2.12ZM280.57,1034l2.12,1.06a7,7,0,0,1,3-1.06v-8.13A8.63,8.63,0,0,0,280.57,1034Zm2.12,7.25v3.18a1.87,1.87,0,0,0,2.12-2.12v-1.06Zm1.06-65.07c.23,1.42.88,2.12,1.94,2.12h1.06v-2.12Zm0,39.25v1.06h1.94a1.88,1.88,0,0,0,2.12-2.12v-.89H285.7C284.4,1013.64,283.75,1014.29,283.75,1015.47Zm3-17.51-1.94,3.19v3a7.75,7.75,0,0,1,4.07,1.06,8.11,8.11,0,0,1,1.06-3.18Q288.35,998,286.76,998Zm-1.06-70.19v2.12h1.06v-2.12Zm1.06,51.63v2.12h1.06v-2.12Zm2.12,124.83v2.12h1.06v-2.12Zm1.06-207.4v3c.23,1.42.88,2.12,1.94,2.12h1.06v-1.06Q291.53,896.83,289.94,896.83Zm1.94,71.25v3H294V970C294,968.73,293.3,968.08,291.88,968.08Zm0,52.69v3a1.87,1.87,0,0,0,2.12-2.12Zm1.06-94.06v2.12H294q1.59,0,3.18-3.18v-1.06h-2.12Q292.95,924.94,292.94,926.71ZM294,904.07V905h4.24v-.89Zm0,171.33v1.06c.24,1.42.94,2.12,2.12,2.12l1.06-2.12v-1.06Zm3.18,4.07-1.06,5.3h3l-.89-5.3Zm0,25.81q0,1.59,4.07,3.18v-3.18Zm1.06-165.14v2.12q1.95,0,1.95-2.12Zm.89-39.25v3.18h1.06v-3.18Z"/><path class="cls-2" d="M366.85,851.38q30.94,0,30.94,6.19v260.26a9,9,0,0,0,.88,4.07q-3.18,11.32-11.31,11.32H361.73q-6.72,0-10.26-9.19,0-6,1.06-25.81-1.06-22.63-1.06-29.88,1.06-10.43,1.94-12.2l-1.94-22.63a50.4,50.4,0,0,0,1.06-8.31q-1.06-14.32-1.06-18.56l1.06-4.07a30.72,30.72,0,0,1-1.06-8.13,10.51,10.51,0,0,1,1.06-5.3l-2.12-15.38,2.12-13.26q0-1.77-1.06-12.38,1.06-18.92,1.06-23.69,0-.88-1.06-8.31l1.06-5.13-1.06-5.13a7,7,0,0,1,1.06-3q0-.88-1.06-8.31,0-42.08,8.13-42.08Zm-1.06,86.46v1.94h1.06v-1.94Zm0,63.65,2.12,1.06h3v-4.07H369Q367.38,998.49,365.79,1001.5ZM367.91,908V909q.71,6.19,3,6.19H372v-1.06A9.71,9.71,0,0,1,370,908ZM370,888.34l3,2.12h2.12Q373,888,373,886.4H372C370.68,886.51,370,887.16,370,888.34Zm3,175.92v1.06h2.12v-1.06ZM374.1,916.1v2.12h1.06V916.1Zm0,20.69v1.94h1.06v-1.94Zm1.06,38v2.12h4.07l1.06-5.13a8.14,8.14,0,0,1-1.06-3.19h-1.06Q375.16,969.67,375.16,974.8Zm0,30.94v3q1.41-1.06,6.19-1.06v-1.06Q376.58,1006.62,375.16,1005.74Zm.89-6.19v.89h2.12v-.89Zm4.24-114.21v3h1.94v-1.06A1.72,1.72,0,0,0,380.29,885.33Zm1.06,51.45-1.06,1.94h3A1.72,1.72,0,0,0,381.35,936.78Zm-1.06,161.43v1.06q.35,2.12,1.94,2.12v-3.18Zm1.06-17.51v1.06h1.94v-1.06Zm.88-199.44v.88q0,1.6,3.18,3.19v-2.12c0-1.3-.7-1.95-2.12-1.95Z"/><path class="cls-2" d="M455.79,851.38q6.19,0,25.82,1.95a104.73,104.73,0,0,1,14.32-.89H501q17.68,2.3,28.82,8.13,29.88,19.27,29.88,54.64v152.23q0,48.63-50.39,64.71-10.26,1.06-15.56,1.06H446.59q-11,0-12.37-15.38a59.32,59.32,0,0,1,1.06-11.32q-1.06-14.49-1.06-27.76v-1.06q0-6,1.06-16.44l-1.06-2.12,1.06-5.13a44.53,44.53,0,0,0-1.06-11.31q1.06-13.79,1.06-23.69v-5.13q0-10.78-1.06-22.63a63.91,63.91,0,0,0,1.06-12.38,7.09,7.09,0,0,0-1.06-3,8.11,8.11,0,0,1,1.06-3.18q-1.06-31.65-1.06-41l1.06-33.06-1.06-1.95,1.06-6.19V877a50.17,50.17,0,0,0-1.06-9.19Q434.22,851.39,455.79,851.38Zm-1.06,75.14-.88,1.95q.17,2.12,1.94,2.12l1.06-2.12Q456.85,926.53,454.73,926.53Zm-.88,68.78a9,9,0,0,0,5.13,8.31v-3.18q-1.42,0-4.24-5.13Zm.88-35.89v1.06h1.06q4.07-.71,4.07-8.31H459Q457.55,952.17,454.73,959.42Zm0,107v5.13a1.88,1.88,0,0,0,2.12-2.12,7,7,0,0,1-1.06-3Zm1.06-183.17q4.42,7.25,9.37,7.25V889.4q-5.31-6-5.31-7.25A7.74,7.74,0,0,1,455.79,883.21Zm0,82.39v1.94c.23,1.42.94,2.12,2.12,2.12l1.06-2.12q0-1.94-2.12-1.94Zm0,79.21v1.94h1.06v-1.94ZM459,993.36q0,2.3,5.13,3v-1.06q0-1.94-2.12-1.94Zm0,84.34v1.06h1.95a1.88,1.88,0,0,0,2.12-2.12v-2.12H462Q460.56,1074.52,459,1077.7Zm.88-186.18v1.94h1.06v-1.94Zm0,122.35h1.06a1.88,1.88,0,0,0,2.12-2.12H462C460.56,1012,459.85,1012.69,459.85,1013.87ZM463,929.54v2.12h1.06v-2.12Zm0,4.07v4.24a2.12,2.12,0,0,0,0-4.24Zm2.12,179.11v3H466v-3ZM466,875.08V877q.35,2.12,2.12,2.12h1.06a7.75,7.75,0,0,1,1.06-4.07Zm0,17.5v1.94h1.06v-1.94Zm0,3v7.25h1.06l3.18-2.12c0,.7.29,1.06.88,1.06v-5.13Zm0,202.63v1.06q0,1.59,4.24,3,5.12-1.24,5.13-3v-2.12Zm4.24-216.95q0,1.59-2.12,4.07a2,2,0,0,0,2.12,1.94h3v-6Zm-2.12,203.68a2,2,0,0,0,2.12,1.95v-1.95Zm0,7.07v1.06h3V1092Zm3,19.62v1.06h2.12v-1.06Zm6.19-8.31v3.18a1.88,1.88,0,0,0,2.12-2.12v-1.06Zm1.06,6.19c.23,1.42.94,2.12,2.12,2.12v-2.12Zm3.18-224.19v3h1.94v-1.06A1.72,1.72,0,0,0,481.6,885.33Zm0,12.37v187.24q8.13,2,10.26,1.95H500q9.19,0,13.44-14.32v-9.37l1.06-6.19c0-.59-.35-.89-1.06-.89l1.06-9.37q0-6.19-1.06-47.21,0-3.53,1.06-29.88l-1.06-10.25a96.48,96.48,0,0,0,1.06-15.56,7,7,0,0,0-1.06-3q.88-2.12,2.12-11.31,0-31.83-20.69-31.83Zm6.19,207.75v1.06h4.07v-1.06Zm12.2-8.31c.24,1.41.94,2.12,2.12,2.12v-2.12Zm0,3.18v1.06h2.12v-1.06Zm5.3,12.37v.89q.18,2.12,1.95,2.12h1.06v-3Zm3-233.56v1.06h2.12v-1.06Zm10.25,222.25v4.07c.24,1.41.94,2.12,2.13,2.12s1.94-.71,1.94-2.12Q522.62,1103.87,518.55,1101.39Zm1.06-221.19a7.08,7.08,0,0,1,1.06,3h1.94a8,8,0,0,1-.88-3Zm7.25,32.89q.35,2.12,1.94,2.12H532v-1.06q-3.18,0-3.18-3.19A2,2,0,0,0,526.86,913.09Zm3-14.5v3.18q1.59,0,3.18-3.18v-.89A9.24,9.24,0,0,1,529.87,898.59Zm1.06,175.92v5.13h2.12v-5.13Zm3-72-.89,5.13q1.95,0,1.95,3.18h3.18v-5.13q0-1.59-3.18-3.18Zm0,62.77c.23,1.42.94,2.12,2.12,2.12v-2.12ZM535,951.1v1.06h2.12V951.1ZM537.12,908v1.94h2.12V908Zm1.06,7.25v.88h1.94v-.88Zm0,51.27v1.06a7.78,7.78,0,0,1,4.07,1.06h1.06v-1.06a8.11,8.11,0,0,1-3.18-1.06Zm4.07-42.08v1.06h4.07v-1.06Z"/><path class="cls-2" d="M663.19,850.32q22.63,0,22.63,21.57,53.57,243.64,53.57,251.07,0,9.2-12.38,10.26H702.26q-9.55,0-12.2-20.51-3.18-1.06-3.18-6.19H631.36q-3.54,26.7-14.5,26.7H590.16q-6,0-10.26-9.19l13.44-56.58q0-6,12.2-58.7,0-7.78,5.3-26.7l25.64-117.4q3.88-12.2,12.38-12.2Q648.86,851.38,663.19,850.32Zm-59.59,252v5.3h1.95l-.89-5.3Zm1.95-20.51v2.12a1.87,1.87,0,0,0,2.12-2.12Zm2.12-10.25v2.12h1.06v-2.12Zm1.06,15.38V1088h2.12v-1.06Zm3,3.18q2.12,6.54,2.12,8.13h3v-1.06l-.88-7.07Zm2.12-47.38v1.06a2,2,0,0,0,2.12,1.94h.88v-3Zm2.12,9.19V1054h3v-2.12Zm0,47.39v2.12h.88v-2.12Zm1.94-17.51c.24,1.42.94,2.12,2.13,2.12h2.12v-5.13Q617.92,1080.18,617.92,1081.77Zm0,4.07V1088q1.59,0,4.25,3l-1.06,2.12v1.06h3v-1.06a7,7,0,0,1-1.06-3h1.06a10.06,10.06,0,0,1-1.06-5.13Zm1.06-21.57v4.07q0,1.59,3.19,3.18H623v-5.13Q621.46,1066.38,619,1064.26Zm4.07,8.31a2,2,0,0,0,2.12,1.94c1.41,0,2.12-.65,2.12-1.94Zm3.18-4.24,6.19,4.24v1.94q2.3,0,3-7.07l-1.95-1.06Q631,1068.33,626.23,1068.33Zm1.06,11.31.88,5.3h1.06a1.87,1.87,0,0,0,2.12-2.12v-1.06a1.87,1.87,0,0,0-2.12-2.12Zm1.94-52.34v1.95h1.06v-1.95Zm0,28.82v1.95h1.06v-1.95Zm0,4.07v1.06h2.12v-1.06Zm3.18-65.77v.88a1.72,1.72,0,0,0,1.95-1.94V992.3A2,2,0,0,0,632.42,994.42Zm3,6h2.12v-1.95C636.13,998.73,635.43,999.38,635.43,1000.44Zm0,80.27h3.18v-1.94h-1.06C636.13,1078.88,635.43,1079.53,635.43,1080.7Zm1.06-67.89v1.06h2.12v-1.06Zm1.06-50.39v1.06h1.94v-1.06Zm1.94,2.12v1.94l3.18,4.24v1.06c0,.59-.35.88-1.06.88l1.06,2.12a32.35,32.35,0,0,0-1.06,7.25,11.8,11.8,0,0,1,6.19-2.12v-9.19q-3.89-6.19-5.13-6.19Zm1.06-32.89a2,2,0,0,0,2.12,1.94h2.12q0-1.94.88-1.94a9.34,9.34,0,0,1-.88-3.18Q640.55,930.07,640.55,931.66Zm0,56.58v1.94h4.24q0-1.94-2.12-1.94Zm17.5-9.37-16.44,80.27h1.06l9.19,2.12h1.06q6.19,0,23.69-2.12v-10.26q-10.25-54.1-14.32-61.7-1.06-8.31-3.18-8.31Zm-16.44,102.9v5.13h3.18v-1.06Q643.2,1081.77,641.61,1081.77Zm1.06-89.46v1.06h2.12V992.3Zm1.06-53.57v2.12h1.06v-2.12Zm1.94,19.63v3c1.42,0,2.12-.65,2.12-1.94Zm2.12-60.65a8.11,8.11,0,0,0,3.19.89l4.07-1.95,6.19,1.06h1.95a1.87,1.87,0,0,0,2.12-2.12v-1.06q0-1.94-2.12-1.94H657c0,2-.65,3-1.94,3L654,893.46c.71,0,1.06-.29,1.06-.88Q647.8,892.58,647.8,897.71Zm13.44,20.51q0,2.65-8.31,8.31v3q3,0,6.19,8.31,3.18,0,3.18,1.94V943a9,9,0,0,0-5.3,1.94h-3V943l3-4.25v-1.94h-4.07c-.95,0-1.94,1-3,3v2.13l1.06,1.94a8.14,8.14,0,0,1-3.19,1.06l2.13,3.18a.94.94,0,0,1-1.06,1.06c0,.59.35.88,1.06.88l-1.06,5.13v2.12c.23,1.41.94,2.12,2.12,2.12,0-.71.29-1.06.88-1.06l2.12,3a11.76,11.76,0,0,1,5.13-.88v-2.12q-5.13,0-5.13-6.19,0-1.59,9.19-5.13,4.95,0,8.31,8.13h1.06v-1.95h1.94l-.88,1.95h5.13v-.89l-2.13-3.18,1.06-7.25-2.12-.88L671.49,947a1.88,1.88,0,0,1-2.12-2.12V943l2.12-3.19v-1.06q-8.31,0-8.31-10.25l-1.95,1.06h-1.06a1.88,1.88,0,0,1-2.12-2.12q5.13-4.07,8.31-4.07l-1.06-2.12h2.12q1.41,0,3,3.18v2.12h-2.12v4.07q2.83,7.25,9.37,7.25V933.6q-5.13-1.06-5.13-4.07,0-1.24,1.06-10.26h-2.12A58.14,58.14,0,0,0,661.24,918.22ZM647.8,1085.83V1088H651v-2.12Zm2.13-199.44v1.94a1.72,1.72,0,0,0,1.94-1.94Zm0,29.7v3.18H651V916.1Zm0,14.5v3H651v-3Zm0,35h6.19a1.88,1.88,0,0,0-2.12-2.12h-2.12A2,2,0,0,0,649.93,965.6Zm1.94-58.7,1.06,5.13h2.12V906.9Zm6.19-2.12v5.13q0,3.19-4.07,3.19v1.06a.94.94,0,0,0,1.06,1.06q-2.12,4.07-2.12,6h2.12q0-5.12,1.94-5.13,1.06,0,6.19-9.19Q659.83,904.78,658.06,904.78ZM657,970.73v1.95h1.06v-1.95Zm2.12-14.5q1.77,0,3.18,5.13-3.18,5.13-3.18,7.25a.94.94,0,0,1,1.06,1.06l4.07-1.06,5.13,1.06q2.83,0,9.37-3.18a7.73,7.73,0,0,0,4.07,1.06v-3h-7.25c-1.3,0-1.94-.71-1.94-2.12l.88-5.13h-3v1.06a7,7,0,0,1,1.06,3l-2.12,1.06a.94.94,0,0,0-1.06-1.06.94.94,0,0,1-1.06,1.06q-2.3-4.42-5.13-5.13l1.06-2.12V950H662.3Q659.12,951.11,659.12,956.23Zm1.06-73v4.07q1.41,0,3-3l-1.95-1.06Zm1.06,87.52v3h1.06v-3Zm0,103.79v4.24h1.95v-4.24Zm10.26-97.6,1.06,1.94v1.06q0,3.18-4.24,3.18v1.95l2.12-1.06,2.12,1.06q.35-1.95,1.94-1.95l3.18,1.95h3q1.59,0,4.24-4.07v-1.06h-1.06q-3.36,2.13-5.13,2.12,0-1.41-5.13-5.13Zm-3.18,9.19v1.06h3.18v-1.06Zm5.3,91.59a8.31,8.31,0,0,1-2.12,5.13h2.12q1.41,0,3-4.07l-2.12-1.06ZM678.75,947v5.13h.88q0-2.12,4.24-5.13Zm4.07,136.85v1.95q0,1.59,3,3.18a7.84,7.84,0,0,1,2.12-5.13l-1.06-5.13Q685.46,1078.76,682.81,1083.89Zm3-127.65v4.24h1.06v-4.24Zm0,5.13v2.12h1.06v-2.12Zm1.06,96.72v3.18l4.07,1.06v-4.24Zm2.12,23.69q0,1.42,3,3.18v-3.18Zm4.07-80.27v5.13h1.06q0-1.59,2.12-4.07l-2.12-1.06Zm0,89.46v2.12c.23,1.42.94,2.12,2.12,2.12l1.06-2.12a1.88,1.88,0,0,0-2.12-2.12Zm1.06-46.15v3q.35,2.12,2.12,2.12v-3.18Q696.25,1044.82,694.13,1044.82Zm1.06,26.7q1.41,9.37,6.19,14.32V1089q0,1.95-3.18,1.94V1092l5.13,9.37h1.06a1.87,1.87,0,0,0,2.12-2.12q0-2.65-3.18-7.25,0-6.19,4.24-6.19v-9.19a1.87,1.87,0,0,0-2.12-2.12v6.19h-3.18q-1.06,0-4.07-8.13h-1.06l1.06-2.12v-1.06h-1.06A2,2,0,0,0,695.19,1071.51Zm1.94-11.32v1.06h2.12v-1.06Zm3.18-47.38v2.12h1.06v-2.12Zm0,16.44v2.12h1.06v-2.12Zm3,33.95v2.12h1.06v-2.12Zm1.06,39.08v1.06h2.12v-1.06Zm13.44-8.13v2.12c1.3,0,1.95-.7,1.95-2.12Z"/><path class="cls-2" d="M144.4,1193.62a1.86,1.86,0,0,1,1.86-1.86h15.26a14.63,14.63,0,0,1,14.65,14.65,12,12,0,0,1-3.52,8.72,13.44,13.44,0,0,1,7.1,12.11,14.67,14.67,0,0,1-14.65,14.65H146.26a1.86,1.86,0,0,1-1.86-1.86Zm17.12,19.23a6.16,6.16,0,0,0,6.18-6.25,6.27,6.27,0,0,0-6.18-6.38h-6.8a1.86,1.86,0,0,0-1.86,1.86V1211a1.86,1.86,0,0,0,1.86,1.86Zm3.58,20.57a6.27,6.27,0,0,0,6.18-6.38,6.16,6.16,0,0,0-6.18-6.25H154.73a1.86,1.86,0,0,0-1.86,1.86v8.91a1.86,1.86,0,0,0,1.86,1.86Z"/><path class="cls-2" d="M201.19,1217.56l-13.52-23a1.86,1.86,0,0,1,1.6-2.8h6.09a1.86,1.86,0,0,1,1.66,1l7,13.77a1.86,1.86,0,0,0,3.31,0l7.06-13.78a1.86,1.86,0,0,1,1.66-1h6a1.86,1.86,0,0,1,1.6,2.8l-13.52,23a1.86,1.86,0,0,0-.26.94V1240a1.86,1.86,0,0,1-1.86,1.86H203.3a1.86,1.86,0,0,1-1.86-1.86V1218.5A1.86,1.86,0,0,0,201.19,1217.56Z"/><path class="cls-2" d="M313.52,1213.27a25.83,25.83,0,0,1,26.17-22.15A25.14,25.14,0,0,1,355.5,1197a1.87,1.87,0,0,1,.13,2.76l-3.43,3.43a1.86,1.86,0,0,1-2.47.13,16.63,16.63,0,0,0-10.45-3.66,17.3,17.3,0,0,0-17.37,15.94,17.06,17.06,0,0,0,17.21,18.3,16.79,16.79,0,0,0,9.36-2.76,1.83,1.83,0,0,0,.8-1.53v-6.74a1.86,1.86,0,0,0-1.86-1.86H341a1.86,1.86,0,0,1-1.86-1.86v-4.74a1.86,1.86,0,0,1,1.86-1.86h14.31a1.86,1.86,0,0,1,1.86,1.86v20.42a1.86,1.86,0,0,1-.7,1.46,27.33,27.33,0,0,1-17.2,6.21A25.74,25.74,0,0,1,313.52,1213.27Z"/><path class="cls-2" d="M403.73,1240.93l-9.22-16.64a1.86,1.86,0,0,0-1.63-1h-4.53a1.86,1.86,0,0,0-1.86,1.86V1240a1.86,1.86,0,0,1-1.86,1.86h-4.74A1.86,1.86,0,0,1,378,1240v-46.41a1.86,1.86,0,0,1,1.86-1.86h16.82a15.9,15.9,0,0,1,7.65,29.75,1.84,1.84,0,0,0-.7,2.56l8.74,15a1.86,1.86,0,0,1-1.61,2.79h-5.44A1.86,1.86,0,0,1,403.73,1240.93ZM386.49,1213a1.86,1.86,0,0,0,1.86,1.86h7.71c4.55,0,7.75-2.45,7.93-6.94a7.57,7.57,0,0,0-7.66-7.71h-8a1.86,1.86,0,0,0-1.86,1.86Z"/><path class="cls-2" d="M425.48,1216.83a25.71,25.71,0,1,1,25.71,25.71A25.69,25.69,0,0,1,425.48,1216.83Zm43,0a17.25,17.25,0,1,0-17.25,17.25A17.24,17.24,0,0,0,468.45,1216.83Z"/><path class="cls-2" d="M493,1193.62a1.86,1.86,0,0,1,1.86-1.86h16.82c8.66,0,15.75,5.73,15.75,15.75s-7,15.82-15.75,15.82h-8.36a1.86,1.86,0,0,0-1.86,1.86v16.69h-6.6A1.86,1.86,0,0,1,493,1240Zm18.68,21.25a6.92,6.92,0,0,0,7.29-7.36c0-4.69-3.26-7.29-7.29-7.29h-8.36a1.86,1.86,0,0,0-1.86,1.86V1213a1.86,1.86,0,0,0,1.86,1.86Z"/><path class="cls-2" d="M596.2,1191.76h4.74a1.86,1.86,0,0,1,1.86,1.86v37.94a1.86,1.86,0,0,0,1.86,1.86h15.16a1.86,1.86,0,0,1,1.86,1.86V1240a1.86,1.86,0,0,1-1.86,1.86H596.2a1.86,1.86,0,0,1-1.86-1.86v-46.41A1.86,1.86,0,0,1,596.2,1191.76Z"/><path class="cls-2" d="M640,1191.76h4.74a1.86,1.86,0,0,1,1.86,1.86v37.94a1.86,1.86,0,0,0,1.86,1.86h15.16a1.86,1.86,0,0,1,1.86,1.86V1240a1.86,1.86,0,0,1-1.86,1.86H640a1.86,1.86,0,0,1-1.86-1.86v-46.41A1.86,1.86,0,0,1,640,1191.76Z"/><path class="cls-2" d="M292.53,1196.54a19,19,0,0,0-31.59,14.57v29.05a1.73,1.73,0,0,0,1.73,1.73h4.71a1.73,1.73,0,0,0,1.73-1.73v-15a1,1,0,0,1,1-1h19.59a1,1,0,0,1,1,1v15a1.73,1.73,0,0,0,1.73,1.73h4.71a1.73,1.73,0,0,0,1.73-1.73v-29.4A19,19,0,0,0,292.53,1196.54Zm-1.76,14.22v4.18a1,1,0,0,1-1,1H270.14a1,1,0,0,1-1-1V1211a11,11,0,0,1,9.83-11.06q.51,0,1,0a10.71,10.71,0,0,1,7.29,2.84A10.86,10.86,0,0,1,290.77,1210.76Z"/><path class="cls-2" d="M571.48,1196.54a19,19,0,0,0-31.59,14.57v29.05a1.73,1.73,0,0,0,1.73,1.73h4.71a1.73,1.73,0,0,0,1.73-1.73v-15a1,1,0,0,1,1-1h19.59a1,1,0,0,1,1,1v15a1.73,1.73,0,0,0,1.73,1.73h4.71a1.73,1.73,0,0,0,1.73-1.73v-29.4A19,19,0,0,0,571.48,1196.54Zm-1.76,14.22v4.18a1,1,0,0,1-1,1H549.1a1,1,0,0,1-1-1V1211a11,11,0,0,1,9.83-11.06q.51,0,1,0a10.71,10.71,0,0,1,7.29,2.84A10.86,10.86,0,0,1,569.72,1210.76Z"/></svg>